<svg xmlns="http://www.w3.org/2000/svg" id="Financial" viewBox="0 0 64 64">
  <path d="M20.3 32.49c-.23 0-.46-.08-.65-.24-.42-.36-.47-.99-.11-1.41l9.4-10.98c.36-.42.99-.47 1.41-.11.42.36.47.99.11 1.41l-9.4 10.98c-.2.23-.48.35-.76.35ZM17.21 33.11c-.15 0-.3-.03-.45-.11l-8.42-4.22c-.49-.25-.69-.85-.45-1.34.25-.49.85-.69 1.34-.45l8.42 4.22c.49.25.69.85.45 1.34-.18.35-.53.55-.9.55ZM53.59 43.59c-.26 0-.51-.1-.71-.29l-3.81-3.81c-.39-.39-.39-1.02 0-1.41s1.02-.39 1.41 0l3.81 3.81c.39.39.39 1.02 0 1.41-.2.2-.45.29-.71.29Z" fill="#1a2744" class="color6d747e svgShape"></path>
  <path d="m29,29c-1.1,0-2,.9-2,2v28c0,1.1.9,2,2,2h4c1.1,0,2-.9,2-2v-19.51l-3.82-10.49h-2.18Z" fill="#0ea5e9" class="color007aff svgShape"></path>
  <rect width="8" height="18" x="15" y="43" rx="2" ry="2" fill="#0ea5e9" class="color007aff svgShape"></rect>
  <rect width="8" height="26" x="3" y="35" rx="2" ry="2" fill="#0ea5e9" class="color007aff svgShape"></rect>
  <path d="m39,41.58v17.42c0,1.1.9,2,2,2h4c1.1,0,2-.9,2-2v-18.2l-8,.78Z" fill="#0ea5e9" class="color007aff svgShape"></path>
  <circle cx="31" cy="19" r="3" fill="#f59e0b" class="colorfec107 svgShape"></circle>
  <circle cx="19" cy="33" r="3" fill="#f59e0b" class="colorfec107 svgShape"></circle>
  <circle cx="7" cy="27" r="3" fill="#f59e0b" class="colorfec107 svgShape"></circle>
  <circle cx="16" cy="13" r="10" fill="#f59e0b" class="colorfec107 svgShape"></circle>
  <path d="m17,12h-2c-.55,0-1-.45-1-1s.45-1,1-1h4c.55,0,1-.45,1-1s-.45-1-1-1h-2v-1c0-.55-.45-1-1-1s-1,.45-1,1v1c-1.65,0-3,1.35-3,3s1.35,3,3,3h2c.55,0,1,.45,1,1s-.45,1-1,1h-4c-.55,0-1,.45-1,1s.45,1,1,1h2v1c0,.55.45,1,1,1s1-.45,1-1v-1c1.65,0,3-1.35,3-3s-1.35-3-3-3Z" fill="#009c3b" class="colorffffff svgShape"></path>
  <circle cx="42" cy="31" r="11" fill="#e8eaf0" class="colore6e7e8 svgShape"></circle>
  <circle cx="42" cy="31" r="8" fill="#f1f1f2" class="colorf1f2f2 svgShape"></circle>
  <path d="m59,50c-.51,0-1.02-.2-1.41-.59l-4-4c-.78-.78-.78-2.05,0-2.83.78-.78,2.05-.78,2.83,0l4,4c.78.78.78,2.05,0,2.83-.39.39-.9.59-1.41.59Z" fill="#f59e0b" class="colorfec107 svgShape"></path>
</svg>
