<svg xmlns="http://www.w3.org/2000/svg" xmlns:xlink="http://www.w3.org/1999/xlink" xmlns:svgjs="http://svgjs.com/svgjs" id="SvgjsSvg1083" width="288" height="288" version="1.1"><defs id="SvgjsDefs1084"/><g id="SvgjsG1085"><svg xmlns="http://www.w3.org/2000/svg" enable-background="new 0 0 64 64" viewBox="0 0 64 64" width="288" height="288"><path fill="#1a2744" d="M47,22H17c-0.5527344,0-1,0.4477539-1,1v9c0,0.3510742,0.1845703,0.6767578,0.4853516,0.8574219   l0.0927734,0.0556641C21.40625,35.8100586,26.703125,37.2583008,32,37.2583008s10.59375-1.4482422,15.421875-4.3452148   l0.0927734-0.0556641C47.8154297,32.6767578,48,32.3510742,48,32v-9C48,22.4477539,47.5527344,22,47,22z" class="svgShape color546e7a-0 selectable"/><path fill="#373e4f" d="M56.4765625,18.1206055l-24-13c-0.296875-0.1611328-0.65625-0.1611328-0.953125,0l-24,13   C7.2011719,18.2954102,7,18.6328125,7,19s0.2011719,0.7045898,0.5234375,0.8793945l24,13C31.671875,32.9599609,31.8359375,33,32,33   s0.328125-0.0400391,0.4765625-0.1206055l24-13C56.7988281,19.7045898,57,19.3671875,57,19   S56.7988281,18.2954102,56.4765625,18.1206055z" class="svgShape color37474f-1 selectable"/><path fill="#0ea5e9" d="M52,40H12c-3.859375,0-7,3.1401367-7,7s3.140625,7,7,7h40c3.859375,0,7-3.1401367,7-7S55.859375,40,52,40z" class="svgShape color5c6bc0-2 selectable"/><path fill="#e8eaf0" d="M52,40H12c-3.859375,0-7,3.1401367-7,7c0,1.4872437,0.4697876,2.8649292,1.2637939,4h51.4724731    C58.5302734,49.8649292,59,48.4872437,59,47C59,43.1401367,55.859375,40,52,40z" class="svgShape color9fa8da-3 selectable"/><path fill="#284993" d="M56.9501953,42.0556641C55.6367188,40.7299805,53.8789062,40,52,40s-3.6367188,0.7299805-4.9443359,2.0493164    C45.7304688,43.3632812,45,45.121582,45,47c0,3.8598633,3.140625,7,7,7s7-3.1401367,7-7    C59,45.121582,58.2695312,43.3632812,56.9501953,42.0556641z" class="svgShape color283593-4 selectable"/><path fill="#f59e0b" d="M32,51h-8c-0.5527344,0-1,0.4477539-1,1v6c0,0.3466797,0.1796875,0.668457,0.4746094,0.8505859    c0.2949219,0.1816406,0.6611328,0.1972656,0.9726562,0.0439453L28,57.1181641l3.5527344,1.7763672    C31.6943359,58.9648438,31.8466797,59,32,59c0.1826172,0,0.3652344-0.050293,0.5253906-0.1494141    C32.8203125,58.668457,33,58.3466797,33,58v-6C33,51.4477539,32.5527344,51,32,51z" class="svgShape colorfb8c00-5 selectable"/><circle cx="28" cy="47" r="7" fill="#d58600" class="svgShape colord50000-6 selectable"/><path fill="#f4ad36" d="M28,51c-2.2060547,0-4-1.7944336-4-4s1.7939453-4,4-4s4,1.7944336,4,4S30.2060547,51,28,51z M28,45     c-1.1025391,0-2,0.8969727-2,2s0.8974609,2,2,2s2-0.8969727,2-2S29.1025391,45,28,45z" class="svgShape colorf44336-7 selectable"/><circle cx="50" cy="47" r="5" fill="#1a397e" class="svgShape color1a237e-8 selectable"/><circle cx="48" cy="47" r="3" fill="#1a2744" class="svgShape color0a124c-9 selectable"/><path fill="#1a397e" d="M32,18H8c-0.5527344,0-1,0.4477539-1,1v12c0,0.5522461,0.4472656,1,1,1s1-0.4477539,1-1V20h23   c0.5527344,0,1-0.4477539,1-1S32.5527344,18,32,18z" class="svgShape color5c6bc0-10 selectable"/><path fill="#f59e0b" d="M8,30c-1.6542969,0-3,1.3457031-3,3v4c0,0.5522461,0.4472656,1,1,1h4c0.5527344,0,1-0.4477539,1-1v-4   C11,31.3457031,9.6542969,30,8,30z" class="svgShape colorfb8c00-11 selectable"/></svg></g></svg>