<svg xmlns="http://www.w3.org/2000/svg" width="512" height="512" fill="none" viewBox="0 0 512 512" id="graduation">
  <path fill="#dd9722" d="M260.406 410.357C263.534 437.458 272.872 441.175 281.989 448.942C277.667 449.944 257.8 448.589 249.643 441.248C242.024 453.117 239.402 454.105 230.043 455.971C230.043 455.971 212.84 411.712 225.893 395.926C238.947 380.141 260.406 410.357 260.406 410.357Z" class="colordd224c svgShape"></path>
  <path fill="#1a46a9" d="M229.494 401.069C231.321 401.653 234.394 402.891 239.696 405.136C250.274 409.617 256.582 411.917 260.839 413.54C262.021 421.749 263.821 427.65 266.041 432.089C253.741 428.94 233.789 425.827 223.281 432.796C221.212 423.044 219.993 412.076 222.155 403.725C228.927 402.84 224.432 399.449 229.494 401.069Z" class="colora91a3a svgShape"></path>
  <path fill="#d7ddef" d="M468.75 365.191L257.499 365.961L47.6412 341.734C34.5004 340.217 24.4815 358.077 23.2652 379.912C22.0488 401.748 27.0425 420.429 43.2503 420.562L254.362 422.292L464.359 444.019C486.112 446.27 504.753 428.636 505.969 406.801C507.185 384.965 490.586 366.407 468.75 365.191Z" class="colord7d7ef svgShape"></path>
  <path fill="#e8eaf0" d="M45.2152 341.672C44.9015 341.691 44.6006 341.775 44.2913 341.818L43.2504 420.563L81.682 420.877C81.682 420.877 98.3193 408.031 102.032 387.701C105.744 367.372 95.137 353.053 95.137 353.053L234.967 366.377C234.251 365.225 233.494 364.136 232.705 363.098L47.641 341.734C46.8196 341.64 46.0107 341.619 45.2152 341.672Z" class="colorefeefa svgShape"></path>
  <path fill="#aab1c7" d="M49.9644 341.863 47.6413 341.734C25.8058 340.518 7.24799 357.117 6.03166 378.953 4.81537 400.788 21.4149 419.346 43.2503 420.562L45.5733 420.691C67.4088 421.908 85.9668 405.308 87.1831 383.473 88.3994 361.637 71.7999 343.08 49.9644 341.863ZM289.969 397.89 442.863 400.729 289.52 403.96 285.603 418.591 328.933 424.833 281.036 420.996 289.969 397.89ZM245.376 392.294 130.91 382.182 245.13 397.323C245.13 397.323 249.56 395.949 245.376 392.294Z" class="coloraaabc7 svgShape"></path>
  <path fill="#dd9722" d="M229.037 362.675C250.049 359.803 254.43 359.416 274.769 364.844C298.174 376.727 292.84 413.314 277.163 424.651C257.895 428.557 251.156 429.784 232.968 422.401C250.302 413.268 257.968 383.034 229.037 362.675Z" class="colordd224c svgShape"></path>
  <path fill="#1a46a9" d="M253.221 360.695C253.221 360.695 261.972 366.153 265.996 382.461C270.02 398.768 263.803 413.461 263.803 413.461C263.803 413.461 273.906 398.33 271.781 384.453C269.656 370.577 264.612 362.289 264.612 362.289C264.612 362.289 255.392 360.473 253.221 360.695Z" class="colora91a3a svgShape"></path>
  <path fill="#455068" d="M46.4319 367.97L40.9809 367.667C40.9809 367.667 34.2355 367.786 30.1592 376.256C26.083 384.727 30.1479 391.927 30.1479 391.927L66.3933 393.946C66.3933 393.946 59.6527 372.314 46.4319 367.97Z" class="color454a68 svgShape"></path>
  <path fill="#7d919a" d="M85.6653 370.156C86.8905 374.358 87.4416 378.841 87.1836 383.473C85.9673 405.308 67.4095 421.908 45.5741 420.691L43.2502 420.562C36.9638 420.212 31.1162 418.418 25.9979 415.529C26.069 415.527 45.9354 414.808 51.4883 398.525C57.0511 382.213 46.4319 367.97 46.4319 367.97L85.6653 370.156Z" class="color7d7e9a svgShape"></path>
  <path fill="#455068" d="M129.247 145.888L117.318 328.134C170.056 328.134 216.906 334.095 256.032 353.981C295.157 334.095 342.007 328.134 394.745 328.134L382.816 145.888H256.032H129.247Z" class="color454a68 svgShape"></path>
  <path fill="#1a2744" d="M123.282 237.011C213.338 289.005 290.959 293.488 388.781 237.011L386.691 205.087H125.372L123.282 237.011Z" class="color2f3246 svgShape"></path>
  <path fill="#455068" d="M256.032 56.0293L6.03162 145.888V165.214L256.032 248.742L506.032 165.214V145.888L256.032 56.0293Z" class="color454a68 svgShape"></path>
  <path fill="#1a2744" d="M6.03162 145.888 256.032 230.609 506.032 145.888 496.132 142.33 256.032 221.991 15.1237 142.62 6.03162 145.888ZM391.876 284.306C294.427 320.01 211.018 317.725 120.187 284.321L119.716 291.499C210.876 325.124 294.525 327.433 392.345 291.487L391.876 284.306Z" class="color2f3246 svgShape"></path>
  <path fill="#1a2744" d="M257.285 114.342C256.174 114.01 254.977 114.132 253.956 114.682C252.935 115.232 252.174 116.165 251.841 117.276C251.509 118.387 251.631 119.585 252.181 120.606C252.732 121.627 253.665 122.387 254.775 122.72L430.243 175.335C431.354 175.667 432.551 175.545 433.572 174.995C434.593 174.444 435.354 173.511 435.687 172.401C436.019 171.289 435.897 170.092 435.347 169.071C434.796 168.05 433.863 167.29 432.753 166.956L257.285 114.342Z" class="color2f3246 svgShape"></path>
  <path fill="#7d919a" d="M264.61 116.653C264.61 117.857 264.251 119.048 263.554 120.16C262.857 121.272 261.835 122.282 260.546 123.133C259.257 123.984 257.728 124.659 256.044 125.119C254.361 125.58 252.556 125.817 250.734 125.817C248.912 125.817 247.107 125.58 245.424 125.119C243.74 124.659 242.21 123.984 240.922 123.133C239.633 122.282 238.611 121.272 237.914 120.16C237.216 119.048 236.857 117.857 236.857 116.653C236.857 114.223 238.319 111.892 240.922 110.173C243.524 108.455 247.054 107.49 250.734 107.49C254.414 107.49 257.944 108.455 260.546 110.173C263.148 111.892 264.61 114.223 264.61 116.653Z" class="color7d7e9a svgShape"></path>
  <path fill="#1a2744" d="M270.151 119.038C270.151 121.214 268.843 123.3 266.513 124.839C264.184 126.377 261.024 127.241 257.73 127.241C254.435 127.241 251.275 126.377 248.946 124.839C246.616 123.3 245.308 121.214 245.308 119.038C245.308 116.863 246.616 114.776 248.946 113.238C251.275 111.699 254.435 110.835 257.73 110.835C261.024 110.835 264.184 111.699 266.513 113.238C268.843 114.776 270.151 116.863 270.151 119.038Z" class="color2f3246 svgShape"></path>
  <path fill="#7d919a" d="M15.1237 142.62L256.032 221.991L496.132 142.33L486.296 138.583L256.032 213.219L24.3072 139.319L15.1237 142.62Z" class="color7d7e9a svgShape"></path>
  <path fill="#ffb63a" d="M255.772 114.163C254.614 114.231 253.531 114.756 252.76 115.622C251.989 116.489 251.593 117.626 251.66 118.784C251.694 119.358 251.84 119.92 252.091 120.437C252.342 120.955 252.693 121.418 253.122 121.799C253.552 122.181 254.053 122.475 254.596 122.663C255.14 122.851 255.715 122.93 256.289 122.896C297.535 120.455 321.348 128.244 344.945 139.328C367.864 150.093 390.852 164.168 427.35 174.407C427.967 197.405 434.502 215.66 438.57 231.343C442.837 247.794 444.469 260.959 434.813 276.572C405.457 324.038 433.72 364.542 433.72 364.542C434.054 365.01 434.477 365.407 434.964 365.712C435.452 366.016 435.994 366.222 436.561 366.316C437.128 366.411 437.708 366.393 438.268 366.263C438.828 366.134 439.357 365.895 439.825 365.561C440.293 365.227 440.69 364.804 440.995 364.317C441.299 363.829 441.504 363.286 441.599 362.719C441.694 362.152 441.676 361.572 441.546 361.012C441.416 360.452 441.178 359.924 440.844 359.456C440.844 359.456 415.345 324.688 442.254 281.178C453.371 263.202 451.486 246.277 447.044 229.151C442.602 212.024 435.876 194.071 435.876 171.144C435.875 170.182 435.557 169.247 434.971 168.483C434.385 167.72 433.564 167.171 432.635 166.921C395.351 156.931 372.92 142.799 348.666 131.407C324.412 120.015 298.342 111.644 255.772 114.163Z" class="colorffb63a svgShape"></path>
  <path fill="#e8eaf0" d="M281.989 370.023L427.835 365.34L276.655 365.891L281.989 370.023Z" class="colorefeefa svgShape"></path>
  <path fill="#ffb63a" d="M450.534 366.375C450.534 367.868 450.239 369.347 449.668 370.727C449.096 372.107 448.259 373.361 447.203 374.417C446.146 375.473 444.893 376.311 443.513 376.882C442.133 377.454 440.654 377.748 439.16 377.748C436.144 377.748 433.251 376.55 431.119 374.417C428.986 372.284 427.787 369.391 427.787 366.375C427.787 363.359 428.986 360.466 431.119 358.333C433.251 356.2 436.144 355.002 439.16 355.002C442.177 355.002 445.07 356.2 447.203 358.333C449.335 360.466 450.534 363.359 450.534 366.375Z" class="colorffb63a svgShape"></path>
  <path fill="#f59e0b" d="M452.976 374.139C452.976 377.156 451.778 380.048 449.645 382.181C447.512 384.314 444.619 385.512 441.603 385.512C440.109 385.512 438.63 385.218 437.25 384.647C435.87 384.075 434.617 383.237 433.56 382.181C432.504 381.125 431.667 379.871 431.095 378.492C430.524 377.112 430.229 375.633 430.229 374.139C430.229 372.646 430.524 371.167 431.095 369.787C431.667 368.407 432.504 367.153 433.56 366.097C434.617 365.041 435.87 364.203 437.25 363.632C438.63 363.06 440.109 362.766 441.603 362.766C444.619 362.766 447.512 363.964 449.645 366.097C451.778 368.23 452.976 371.123 452.976 374.139Z" class="colorf29637 svgShape"></path>
  <path fill="#ffb63a" d="M474.227 396.396C474.227 403.99 453.07 396.254 445.476 396.254C439.003 396.254 437.474 417.882 436.012 411.859C435.758 410.815 431.724 383.624 431.724 382.502C431.724 374.907 437.881 368.75 445.476 368.75C451.451 368.75 454.529 371.064 456.979 374.456C457.877 375.698 474.227 394.776 474.227 396.396Z" class="colorffb63a svgShape"></path>
  <path fill="#f59e0b" d="M439.938 381.342 443.656 393.666C443.679 393.668 443.696 393.669 443.717 393.67 440.461 396.103 438.018 399.242 436.703 402.685 435.388 406.128 435.261 409.718 436.337 412.993 437.053 415.15 438.273 417.116 439.929 418.778 441.585 420.44 443.643 421.767 445.987 422.682 448.331 423.597 450.915 424.082 453.59 424.111 456.265 424.139 458.98 423.71 461.579 422.847 466.827 421.105 471.287 417.705 473.976 413.393 476.665 409.082 477.364 404.214 475.919 399.859 474.884 396.749 472.805 394.058 469.925 392.098 467.046 390.138 463.483 388.99 459.652 388.787L459.645 388.772 453.922 383.918C453.922 383.918 456.139 388.849 456.129 388.74 456.187 388.778 456.237 388.809 456.293 388.845 454.397 389.011 452.507 389.401 450.677 390.005 449.088 390.546 447.559 391.244 446.124 392.085 446.117 392.077 446.102 392.055 446.102 392.055L439.938 381.342ZM435.91 172.25C435.835 172.298 435.756 172.33 435.687 172.401 432.318 175.874 428.513 174.861 427.545 174.532 428.171 195.899 433.679 213.226 437.709 228.163 440.676 226.608 443.657 226.187 446.239 226.268 441.907 210.272 436.113 193.384 435.91 172.25ZM430.597 284.154C420.106 305.044 420.232 324.17 423.3 338.522 425.876 336.5 428.692 335.707 431.281 335.58 428.855 323.316 429.013 307.194 437.841 289.154 434.44 288.414 432.129 286.35 430.597 284.154Z" class="colorf29637 svgShape"></path>
  <path fill="#00b0ff" d="M105.744 447.662C105.744 447.662 106.981 419.219 126.25 410.027C145.519 400.834 172.619 408.501 172.619 408.501L159.008 432.095C159.008 432.095 142.111 427.292 135.692 433.656C129.274 440.02 126.25 455.971 126.25 455.971L105.744 447.662Z" class="color9200ff svgShape"></path>
  <path fill="#ffb63a" d="M59.1646 223.086C59.1646 223.086 64.1645 241.219 78.1645 241.219C92.1645 241.219 98.6646 256.868 98.6646 256.868L76.4145 276.783C76.4145 276.783 70.0609 266.118 59.1646 264.368C48.2683 262.618 39.4146 244.868 39.4146 244.868L59.1646 223.086Z" class="colorffb63a svgShape"></path>
  <path fill="#00b0ff" d="M408.186 315.097C399.866 314.951 389.622 317.358 379.495 326.385C369.463 335.328 359.377 337.099 351.163 336.24L360.657 356.209C372.516 355.806 384.823 351.653 392.744 341.539C402.642 328.9 416.957 336.182 416.957 336.182L426.398 319.697C426.398 319.697 418.882 315.286 408.186 315.097Z" class="color00ccff svgShape"></path>
  <path fill="#ffb02a" d="M469.531 209.891L456.032 228.141C456.032 228.141 478.032 234.141 481.032 251.391C484.032 268.641 475.532 277.705 475.532 277.705L496.781 281.641C496.781 281.641 518.64 225.966 469.531 209.891Z" class="colorff7f2a svgShape"></path>
  <path fill="#30bb65" d="M139.782 58.1411H170.309C170.309 58.1411 177.779 75.4273 191.771 73.0954C205.763 70.7634 222.035 83.5804 222.035 83.5804L197.868 100.54C197.868 100.54 184.724 84.975 170.309 86.2916C155.893 87.6083 139.782 58.1411 139.782 58.1411Z" class="color30bb8c svgShape"></path>
  <path fill="#f59e0b" d="M70.8264 239.329L70.8113 239.332C70.8113 239.332 68.6556 256.333 56.0341 263.424C57.0533 263.869 58.0984 264.197 59.1629 264.368C62.085 264.837 64.6695 265.955 66.9032 267.328L66.9069 267.317C66.9069 267.317 74.7588 247.082 87.698 243.921C85.0282 242.314 81.8587 241.218 78.1608 241.218C75.3641 241.218 72.9333 240.485 70.823 239.327L70.8264 239.329Z" class="colorf29637 svgShape"></path>
  <path fill="#db9724" d="M490.69 222.938C490.682 223.006 488.397 241.593 474.352 238.807C474.348 238.806 474.344 238.806 474.341 238.805C477.537 242.091 480.135 246.235 481.032 251.391C481.236 252.568 481.383 253.703 481.487 254.803L481.491 254.805C481.491 254.805 491.225 246.066 501.626 254.911C501.683 244.295 499.25 232.393 490.69 222.938Z" class="colordb5e24 svgShape"></path>
  <path fill="#0ea5e9" d="M397.695 316.346C391.893 317.849 385.675 320.878 379.496 326.386C376.729 328.852 373.96 330.76 371.225 332.231C371.225 332.231 371.232 332.238 371.232 332.238C371.232 332.238 388.605 336.551 383.676 349.658C387.058 347.541 390.14 344.863 392.744 341.537C395.758 337.69 399.18 335.695 402.483 334.772L402.479 334.768C402.479 334.768 391.808 329.633 397.695 316.346Z" class="color0090eb svgShape"></path>
  <path fill="#003abd" d="M145.841 405.587C139.266 405.893 132.364 407.11 126.25 410.027C115.965 414.933 110.843 425.306 108.279 433.929C108.423 433.837 122.454 424.898 131.763 439.326C131.766 439.329 131.767 439.333 131.771 439.337C132.9 437.143 134.201 435.136 135.693 433.657C138.327 431.045 142.724 430.328 146.995 430.374L146.993 430.359C146.993 430.359 133.692 420.844 145.841 405.587Z" class="color6d00bd svgShape"></path>
  <path fill="#009c3b" d="M177.994 68.6843C173.421 77.9455 163.109 77.0797 153.028 76.6218C158.264 82.2411 164.428 86.8289 170.309 86.2917C174.496 85.9093 178.573 86.9568 182.254 88.6277C182.255 88.6257 182.256 88.6239 182.256 88.6201C184.977 77.3633 204.763 74.4452 204.809 74.4385C200.608 73.0989 196.082 72.3763 191.772 73.0947C186.079 74.0435 181.464 71.7451 177.994 68.6843Z" class="color2b987c svgShape"></path>
  <path fill="#789aff" d="M270.99 113.713C266.156 113.701 261.093 113.849 255.772 114.164C254.614 114.232 253.53 114.757 252.759 115.623C251.988 116.49 251.593 117.627 251.66 118.785C251.694 119.359 251.84 119.921 252.091 120.438C252.342 120.956 252.693 121.418 253.123 121.8C253.553 122.182 254.054 122.475 254.597 122.664C255.14 122.852 255.715 122.931 256.289 122.896C292.344 120.763 315.076 126.447 335.988 135.314C334.111 129.212 337.892 127.732 339.647 127.377C320.894 119.449 300.096 113.773 270.99 113.713Z" class="colorffda78 svgShape"></path>
  <path fill="#e8eaf0" d="M102.806 377.901L130.91 382.182L232.277 395.619L102.612 383.495C102.612 383.495 98.4553 380.022 102.806 377.901Z" class="colorefeefa svgShape"></path>
  <path fill="#7d919a" d="M90.3711 115.573L316.559 193.6L281.119 205.087L59.8467 126.545L90.3711 115.573Z" class="color7d7e9a svgShape"></path>
</svg>
