<svg xmlns="http://www.w3.org/2000/svg" xmlns:xlink="http://www.w3.org/1999/xlink" xmlns:svgjs="http://svgjs.com/svgjs" id="SvgjsSvg1067" width="288" height="288" version="1.1"><defs id="SvgjsDefs1068"/><g id="SvgjsG1069"><svg xmlns="http://www.w3.org/2000/svg" enable-background="new 0 0 512 512" viewBox="0 0 512 512" width="288" height="288"><path fill="#f4bf90" d="M377.2,406.3c0,0,0,0.1-0.1,0.1l53.3,0.2l0.3-82.1l-17.9,0c-15.5-0.1-29.8-8.6-37.2-22.2     c-18.5-33.4-53.7-55.9-94-56.1c-1.4,0-2.7,0-3.9,0.1c0,0,0,0,0-0.1L211,246c-6.3,0-11.4,5-11.5,11.3c0,8.2,3.3,15.6,8.6,21     c5.4,5.4,12.8,8.7,20.9,8.7l35.9,0.2l0,0c-0.4,3.5-0.5,7-0.5,10.6c0,1.4,0,2.7,0.1,4c1.8,55.7,45.8,100.7,101.1,104.3     c2.2,0.1,4.5,0.2,6.7,0.2C373.9,406.4,375.6,406.4,377.2,406.3z" class="svgShape colorf4bf90-0 selectable"/><rect width="107.2" height="51.4" x="367.8" y="339.6" fill="#f2f2f2" transform="rotate(-89.781 421.39 365.265)" class="svgShape colorf2f2f2-1 selectable"/><path fill="#1b1464" d="M478.3,313.8l-0.4,103.3c0,4.2-3.5,7.7-7.7,7.7l-50.3-0.2c-4.2,0-7.7-3.5-7.7-7.7l0.4-103.3      c0-4.2,3.5-7.7,7.7-7.7l50.3,0.2C474.9,306.2,478.3,309.6,478.3,313.8z" class="svgShape color1b1464-2 selectable"/><g><path fill="#efb386" d="M330.3,330.1L330.3,330.1c3.4-2.9,3.5-8,0.4-11c-10.2-9.8-33.5-28.5-65.8-32c-0.4,3.5-0.5,7-0.5,10.6      c0,1.4,0,2.7,0.1,4c27.2,3.4,47.5,19.9,56.1,27.9C323.3,332.5,327.5,332.6,330.3,330.1z" class="svgShape colorefb386-4 selectable"/></g><g><path fill="#f4bf90" d="M134.8,264.5c0,0,0-0.1,0.1-0.1l-53.3-0.2l-0.3,82.1l17.9,0c15.5,0.1,29.8,8.6,37.2,22.2     c18.5,33.4,53.7,55.9,94,56.1c1.4,0,2.7,0,3.9-0.1c0,0,0,0,0,0.1l66.7,0.3c6.3,0,11.4-5,11.5-11.3c0-8.2-3.3-15.6-8.6-21     c-5.4-5.4-12.8-8.7-20.9-8.7l-35.9-0.2l0,0c0.4-3.5,0.5-7,0.5-10.6c0-1.4,0-2.7-0.1-4c-1.8-55.7-45.8-100.7-101.1-104.3     c-2.2-0.1-4.5-0.2-6.7-0.2C138.1,264.4,136.4,264.4,134.8,264.5z" class="svgShape colorf4bf90-6 selectable"/><rect width="107.2" height="51.4" x="37" y="279.8" fill="#f2f2f2" transform="rotate(-89.781 90.606 305.526)" class="svgShape colorf2f2f2-7 selectable"/><path fill="#1b1464" d="M33.7,357l0.4-103.3c0-4.2,3.5-7.7,7.7-7.7l50.3,0.2c4.2,0,7.7,3.5,7.7,7.7l-0.4,103.3      c0,4.2-3.5,7.7-7.7,7.7l-50.3-0.2C37.1,364.6,33.7,361.2,33.7,357z" class="svgShape color1b1464-8 selectable"/><g><path fill="#efb386" d="M181.7,340.7L181.7,340.7c-3.4,2.9-3.5,8-0.4,11c10.2,9.8,33.5,28.5,65.8,32c0.4-3.5,0.5-7,0.5-10.6      c0-1.4,0-2.7-0.1-4c-27.2-3.4-47.5-19.9-56.1-27.9C188.7,338.3,184.5,338.2,181.7,340.7z" class="svgShape colorefb386-10 selectable"/></g></g><path fill="#009c3b" d="M326.3,102.9c-9.2-10.2-21.4-14.7-33.5-14.7c-11.7,0-22.4,4-31.5,12.2l-5.1,4.6l-5.5-5.5   c-9.2-8.6-19.8-12.2-31.5-12.2c-12.2,0-24.5,4.6-33.4,14.7c-17.8,18.3-16.3,47.2,2.5,65l0.9,0.9l63.5,58.8c2.5,2.5,5.5,2.5,7.6,0   l63.4-58.8l0.9-0.9C342.5,150.2,344,121.1,326.3,102.9z" class="svgShape colored1c24-11 selectable"/></svg></g></svg>