<svg xmlns="http://www.w3.org/2000/svg" id="laboratory" enable-background="new 0 0 135 135" viewBox="0 0 135 135">
  <rect width="128" height="3.16" x="3.5" y="128.34" fill="#7a8490"></rect>
  <path fill="#8eae1f" d="M3.5000017 128.3396454c.4033883-2.5589371 5.0961571-4.573967 10.84375-4.573967.9267998 0 1.8195229.052948 2.6671352.1521759 1.8760872-2.9379807 7.8546219-5.0819702 14.951992-5.0819702 8.6229057 0 15.5846672 3.1497726 15.5846672 7.0539169 0 .8626022-.3602104 1.6856232-.9887428 2.4498444H3.5000017zM131.5 128.3396454c-.4033813-2.5589371-5.0961533-4.573967-10.84375-4.573967-.926796 0-1.8195267.052948-2.6671371.1521759-1.8760834-2.9379807-7.8546219-5.0819702-14.9519882-5.0819702-8.6229095 0-15.584671 3.1497726-15.584671 7.0539169 0 .8626022.3602066 1.6856232.9887466 2.4498444H131.5z"></path>
  <rect width="3.149" height="19.418" x="13.309" y="108.922" fill="#ab5033"></rect>
  <path fill="#8eae1f" d="M25.7038422,111.2919006c0,3.1353836-2.5227108,5.6742783-5.6581917,5.6742783
						c-2.063427,0-3.8769455-1.1042252-4.8521843-2.7565384c-0.9348984,1.6120224-2.6838732,2.6920395-4.6829538,2.6920395
						c-3.0142655,0-5.4564939-2.4421768-5.4564939-5.4485703c0-0.6448441,0.1127548-1.2735062,0.3223248-1.845787
						c-0.8140759-0.830162-1.3138957-1.950531-1.3138957-3.1998291c0-2.0311584,1.3380995-3.7479553,3.1758213-4.3282623
						c0.2418418-3.2401657,2.9418507-5.7871323,6.246563-5.7871323c2.3776836,0,4.4411116,1.3218155,5.4970293,3.2723923
						c0.47542-0.1773453,0.9833069-0.2659988,1.5152016-0.2659988c2.5148392,0,4.5377312,2.0230942,4.5377312,4.5378342
						c0,1.2331619-0.4915562,2.3615952-1.2894955,3.1756744C24.9462433,108.0355988,25.7038422,109.5750961,25.7038422,111.2919006z
						"></path>
  <path fill="#5f8c10" d="M11.041544 112.8440475c0 .3626862-.2901516.6568985-.652914.6568985-.3626642 0-.6568489-.2942123-.6568489-.6568985 0-.3627167.2941847-.6528702.6568489-.6528702C10.7513924 112.1911774 11.041544 112.4813309 11.041544 112.8440475zM11.041544 108.2882462c0 .3626938-.2901516.6568985-.652914.6568985-.3626642 0-.6568489-.2942047-.6568489-.6568985 0-.362709.2941847-.6528625.6568489-.6528625C10.7513924 107.6353836 11.041544 107.9255371 11.041544 108.2882462zM14.4957333 110.2860794c0 .3626862-.2901506.6568985-.652914.6568985-.3626642 0-.6568489-.2942123-.6568489-.6568985 0-.3627167.2941847-.6528625.6568489-.6528625C14.2055826 109.6332169 14.4957333 109.9233627 14.4957333 110.2860794zM16.1929092 105.9722443c0 .3626862-.2901516.6568985-.652915.6568985-.3626642 0-.6568489-.2942123-.6568489-.6568985 0-.3627167.2941847-.6528702.6568489-.6528702C15.9027576 105.3193741 16.1929092 105.6095276 16.1929092 105.9722443zM19.8007183 102.1316681c0 .3626862-.2901516.6568985-.652914.6568985-.3626633 0-.6568489-.2942123-.6568489-.6568985 0-.362709.2941856-.6528625.6568489-.6528625C19.5105667 101.4788055 19.8007183 101.768959 19.8007183 102.1316681zM12.3513069 102.5201263c0 .3626938-.2901516.6568985-.652914.6568985-.3626642 0-.6568489-.2942047-.6568489-.6568985 0-.362709.2941847-.6528625.6568489-.6528625C12.0611553 101.8672638 12.3513069 102.1574173 12.3513069 102.5201263zM22.8418026 104.5353165c0 .3626938-.2901516.6568985-.652914.6568985-.3626652 0-.6568489-.2942047-.6568489-.6568985 0-.362709.2941837-.6528625.6568489-.6528625C22.551651 103.8824539 22.8418026 104.1726074 22.8418026 104.5353165zM15.3919554 100.4463043c0 .3626938-.2901506.6568985-.652914.6568985-.3626642 0-.6568489-.2942047-.6568489-.6568985 0-.362709.2941847-.6528625.6568489-.6528625C15.1018047 99.7934418 15.3919554 100.0835953 15.3919554 100.4463043zM7.81141 104.5353165c0 .3626938-.2901511.6568985-.652914.6568985-.3626642 0-.6568494-.2942047-.6568494-.6568985 0-.362709.2941852-.6528625.6568494-.6528625C7.5212588 103.8824539 7.81141 104.1726074 7.81141 104.5353165zM23.1032009 111.4250259c0 .3626938-.2901516.6568985-.652914.6568985-.3626652 0-.6568489-.2942047-.6568489-.6568985 0-.362709.2941837-.6528625.6568489-.6528625C22.8130493 110.7721634 23.1032009 111.0623169 23.1032009 111.4250259zM20.750618 108.5496445c0 .3626938-.2901516.6568985-.652914.6568985-.3626652 0-.6568508-.2942047-.6568508-.6568985 0-.362709.2941856-.6528625.6568508-.6528625C20.4604664 107.8967819 20.750618 108.1869354 20.750618 108.5496445zM18.7341175 112.8440475c0 .3626862-.2901516.6568985-.652914.6568985-.3626633 0-.6568489-.2942123-.6568489-.6568985 0-.3627167.2941856-.6528702.6568489-.6528702C18.4439659 112.1911774 18.7341175 112.4813309 18.7341175 112.8440475z"></path>
  <g>
    <rect width="2.605" height="12.542" x="118.674" y="115.797" fill="#ab5033"></rect>
    <path fill="#8eae1f" d="M113.8050766,120.4501572h12.3424606l-5.4366608-28.0929871c-0.8202362,0-0.6412582,0-1.4616776,0
						L113.8050766,120.4501572z"></path>
    <path fill="#5f8c10" d="M118.6955261 101.5180817c0 .2320251.1884003.4204407.4204178.4204407.2337799 0 .4221878-.1884155.4221878-.4204407s-.1884079-.4204254-.4221878-.4204254C118.8839264 101.0976563 118.6955261 101.2860565 118.6955261 101.5180817zM116.8744202 110.3795929c0 .2320251.1884003.4204407.4204178.4204407.2337875 0 .4221878-.1884155.4221878-.4204407s-.1884003-.4204254-.4221878-.4204254C117.0628204 109.9591675 116.8744202 110.1475677 116.8744202 110.3795929zM117.7170258 113.7736435c0 .2320251.1884003.4204407.4204178.4204407.2337799 0 .4221878-.1884155.4221878-.4204407s-.1884079-.4204254-.4221878-.4204254C117.905426 113.3532181 117.7170258 113.5416183 117.7170258 113.7736435zM115.7693176 118.4027939c0 .3880615.3151016.7031784.7031403.7031784.3909988 0 .7060928-.3151169.7060928-.7031784 0-.3880539-.315094-.7031555-.7060928-.7031555C116.0844193 117.6996384 115.7693176 118.01474 115.7693176 118.4027939zM117.295723 104.6190414c0 .3001785.2437363.5439301.5439072.5439301.3024445 0 .5461884-.2437515.5461884-.5439301s-.2437439-.5439224-.5461884-.5439224C117.5394592 104.075119 117.295723 104.3188629 117.295723 104.6190414zM118.9930801 108.8736191c0 .3001785.2437439.5439301.5439072.5439301.3024521 0 .5461884-.2437515.5461884-.5439301s-.2437363-.5439148-.5461884-.5439148C119.236824 108.3297043 118.9930801 108.5734406 118.9930801 108.8736191zM121.012825 99.7086334c0 .2320251-.1884003.420433-.4204178.420433-.2337799 0-.4221878-.1884079-.4221878-.420433 0-.2320328.1884079-.420433.4221878-.420433C120.8244247 99.2882004 121.012825 99.4766006 121.012825 99.7086334zM120.3976059 96.712532c0 .2320251-.1884003.4204407-.4204178.4204407-.2337799 0-.4221878-.1884155-.4221878-.4204407s.1884079-.420433.4221878-.420433C120.2092056 96.292099 120.3976059 96.4805069 120.3976059 96.712532zM123.0077438 109.1709976c0 .2320251-.1884079.4204407-.4204178.4204407-.2337875 0-.4221878-.1884155-.4221878-.4204407s.1884003-.4204254.4221878-.4204254C122.8193359 108.7505722 123.0077438 108.9389725 123.0077438 109.1709976zM121.4341278 114.1940765c0 .2320328-.1884003.4204407-.4204178.4204407-.2337799 0-.4221878-.1884079-.4221878-.4204407 0-.2320251.1884079-.4204254.4221878-.4204254C121.2457275 113.7736511 121.4341278 113.9620514 121.4341278 114.1940765zM124.1336594 115.8557739c0 .3880539-.3151016.7031708-.7031403.7031708-.3909912 0-.7060928-.3151169-.7060928-.7031708 0-.3880615.3151016-.7031555.7060928-.7031555C123.8185577 115.1526184 124.1336594 115.4677124 124.1336594 115.8557739zM122.586441 104.2513123c0 .3001785-.2437439.5439301-.5439072.5439301-.3024521 0-.5461884-.2437515-.5461884-.5439301s.2437363-.5439148.5461884-.5439148C122.3426971 103.7073975 122.586441 103.9511337 122.586441 104.2513123zM120.7653351 105.859726c0 .3001785-.2437439.5439377-.5439072.5439377-.3024521 0-.5461884-.2437592-.5461884-.5439377s.2437363-.5439148.5461884-.5439148C120.5215912 105.3158112 120.7653351 105.5595474 120.7653351 105.859726z"></path>
  </g>
  <g>
    <rect width="53.76" height="102.98" x="23.76" y="25.363" fill="#dbdbdb"></rect>
    <rect width="31.699" height="22.27" x="77.515" y="106.07" fill="#ccc"></rect>
    <rect width="2.571" height="22.27" x="77.515" y="106.07" fill="#2c2c34" opacity=".08"></rect>
    <rect width="34.565" height="2.397" x="77.515" y="106.07" fill="#2c2c34" opacity=".08"></rect>
    <rect width="34.565" height="18.753" x="77.515" y="87.317" fill="#dbdbdb"></rect>
    <rect width="34.56" height="18.76" x="77.52" y="87.313" fill="#dbdbdb"></rect>
    <rect width="26.757" height="5.234" x="81.364" y="95.2" fill="#44433f"></rect>
    <rect width="34.565" height="1.492" x="77.515" y="87.317" fill="#2c2c34" opacity=".08"></rect>
    <rect width="34.56" height="79.33" x="77.52" y="7.983" fill="#ccc"></rect>
    <rect width="12.685" height="17.432" x="80.52" y="11.884" fill="#a7a29c"></rect>
    <rect width="10.773" height="15.521" x="81.476" y="12.84" fill="#44433f"></rect>
    <rect width=".956" height="16.477" x="86.384" y="12.362" fill="#a7a29c"></rect>
    <rect width="11.724" height=".956" x="81.001" y="17.656" fill="#a7a29c"></rect>
    <rect width="12.685" height="17.432" x="96.392" y="11.884" fill="#a7a29c"></rect>
    <rect width="10.773" height="15.521" x="97.348" y="12.84" fill="#44433f"></rect>
    <rect width=".956" height="16.477" x="102.256" y="12.362" fill="#a7a29c"></rect>
    <rect width="11.724" height=".956" x="96.873" y="17.656" fill="#a7a29c"></rect>
    <rect width="12.685" height="17.432" x="80.52" y="34.133" fill="#a7a29c"></rect>
    <rect width="10.773" height="15.521" x="81.476" y="35.089" fill="#44433f"></rect>
    <rect width=".956" height="16.477" x="86.384" y="34.611" fill="#a7a29c"></rect>
    <rect width="11.724" height=".956" x="81.001" y="39.906" fill="#a7a29c"></rect>
    <rect width="12.685" height="17.432" x="96.392" y="34.133" fill="#a7a29c"></rect>
    <rect width="10.773" height="15.521" x="97.348" y="35.089" fill="#44433f"></rect>
    <rect width=".956" height="16.477" x="102.256" y="34.611" fill="#a7a29c"></rect>
    <rect width="11.724" height=".956" x="96.873" y="39.906" fill="#a7a29c"></rect>
    <g>
      <rect width="12.685" height="17.432" x="80.52" y="56.382" fill="#a7a29c"></rect>
      <rect width="10.773" height="15.521" x="81.476" y="57.338" fill="#44433f"></rect>
      <rect width=".956" height="16.477" x="86.384" y="56.86" fill="#a7a29c"></rect>
      <rect width="11.724" height=".956" x="81.001" y="62.155" fill="#a7a29c"></rect>
    </g>
    <g>
      <rect width="12.685" height="17.432" x="96.392" y="56.382" fill="#a7a29c"></rect>
      <rect width="10.773" height="15.521" x="97.348" y="57.338" fill="#44433f"></rect>
      <rect width=".956" height="16.477" x="102.256" y="56.86" fill="#a7a29c"></rect>
      <rect width="11.724" height=".956" x="96.873" y="62.155" fill="#a7a29c"></rect>
    </g>
    <rect width="2.571" height="61.95" x="77.515" y="25.367" fill="#2c2c34" opacity=".08"></rect>
    <rect width="58.896" height="4.482" x="21.19" y="20.885" fill="#807f84"></rect>
    <rect width="37.248" height="4.482" x="76.174" y="3.5" fill="#807f84"></rect>
    <rect width="38.023" height="3.098" x="75.786" y="84.219" fill="#807f84"></rect>
    <rect width="2.867" height="22.27" x="109.214" y="106.07" fill="#dbdbdb"></rect>
    <rect width="1.607" height="22.27" x="107.607" y="106.07" fill="#2c2c34" opacity=".08"></rect>
    <g>
      <rect width="12.685" height="17.432" x="28.425" y="30.769" fill="#a7a29c"></rect>
      <rect width="10.773" height="15.521" x="29.38" y="31.725" fill="#44433f"></rect>
      <rect width=".956" height="16.477" x="34.289" y="31.247" fill="#a7a29c"></rect>
      <rect width="11.724" height=".956" x="28.905" y="36.541" fill="#a7a29c"></rect>
      <g>
        <rect width="12.685" height="17.432" x="44.296" y="30.769" fill="#a7a29c"></rect>
        <rect width="10.773" height="15.521" x="45.252" y="31.725" fill="#44433f"></rect>
        <rect width=".956" height="16.477" x="50.16" y="31.247" fill="#a7a29c"></rect>
        <rect width="11.724" height=".956" x="44.777" y="36.541" fill="#a7a29c"></rect>
      </g>
      <g>
        <rect width="12.685" height="17.432" x="60.168" y="30.769" fill="#a7a29c"></rect>
        <rect width="10.773" height="15.521" x="61.124" y="31.725" fill="#44433f"></rect>
        <rect width=".956" height="16.477" x="66.032" y="31.247" fill="#a7a29c"></rect>
        <rect width="11.724" height=".956" x="60.649" y="36.541" fill="#a7a29c"></rect>
      </g>
    </g>
    <g>
      <rect width="12.685" height="17.432" x="28.425" y="53.018" fill="#a7a29c"></rect>
      <rect width="10.773" height="15.521" x="29.38" y="53.974" fill="#44433f"></rect>
      <rect width=".956" height="16.477" x="34.289" y="53.496" fill="#a7a29c"></rect>
      <rect width="11.724" height=".956" x="28.905" y="58.79" fill="#a7a29c"></rect>
      <g>
        <rect width="12.685" height="17.432" x="44.296" y="53.018" fill="#a7a29c"></rect>
        <rect width="10.773" height="15.521" x="45.252" y="53.974" fill="#44433f"></rect>
        <rect width=".956" height="16.477" x="50.16" y="53.496" fill="#a7a29c"></rect>
        <rect width="11.724" height=".956" x="44.777" y="58.79" fill="#a7a29c"></rect>
      </g>
      <g>
        <rect width="12.685" height="17.432" x="60.168" y="53.018" fill="#a7a29c"></rect>
        <rect width="10.773" height="15.521" x="61.124" y="53.974" fill="#44433f"></rect>
        <rect width=".956" height="16.477" x="66.032" y="53.496" fill="#a7a29c"></rect>
        <rect width="11.724" height=".956" x="60.649" y="58.79" fill="#a7a29c"></rect>
      </g>
    </g>
    <g>
      <rect width="12.685" height="17.432" x="28.425" y="75.267" fill="#a7a29c"></rect>
      <rect width="10.773" height="15.521" x="29.38" y="76.223" fill="#44433f"></rect>
      <rect width=".956" height="16.477" x="34.289" y="75.745" fill="#a7a29c"></rect>
      <rect width="11.724" height=".956" x="28.905" y="81.04" fill="#a7a29c"></rect>
      <g>
        <rect width="12.685" height="17.432" x="44.296" y="75.267" fill="#a7a29c"></rect>
        <rect width="10.773" height="15.521" x="45.252" y="76.223" fill="#44433f"></rect>
        <rect width=".956" height="16.477" x="50.16" y="75.745" fill="#a7a29c"></rect>
        <rect width="11.724" height=".956" x="44.777" y="81.04" fill="#a7a29c"></rect>
      </g>
      <g>
        <rect width="12.685" height="17.432" x="60.168" y="75.267" fill="#a7a29c"></rect>
        <rect width="10.773" height="15.521" x="61.124" y="76.223" fill="#44433f"></rect>
        <rect width=".956" height="16.477" x="66.032" y="75.745" fill="#a7a29c"></rect>
        <rect width="11.724" height=".956" x="60.649" y="81.04" fill="#a7a29c"></rect>
      </g>
    </g>
    <g>
      <rect width="12.685" height="17.432" x="28.425" y="97.516" fill="#a7a29c"></rect>
      <rect width="10.773" height="15.521" x="29.38" y="98.472" fill="#44433f"></rect>
      <rect width=".956" height="16.477" x="34.289" y="97.994" fill="#a7a29c"></rect>
      <rect width="11.724" height=".956" x="28.905" y="103.289" fill="#a7a29c"></rect>
      <g>
        <rect width="12.685" height="17.432" x="44.296" y="97.516" fill="#a7a29c"></rect>
        <rect width="10.773" height="15.521" x="45.252" y="98.472" fill="#44433f"></rect>
        <rect width=".956" height="16.477" x="50.16" y="97.994" fill="#a7a29c"></rect>
        <rect width="11.724" height=".956" x="44.777" y="103.289" fill="#a7a29c"></rect>
      </g>
      <g>
        <rect width="12.685" height="17.432" x="60.168" y="97.516" fill="#a7a29c"></rect>
        <rect width="10.773" height="15.521" x="61.124" y="98.472" fill="#44433f"></rect>
        <rect width=".956" height="16.477" x="66.032" y="97.994" fill="#a7a29c"></rect>
        <rect width="11.724" height=".956" x="60.649" y="103.289" fill="#a7a29c"></rect>
      </g>
    </g>
    <g>
      <rect width="6.621" height="4.848" x="99.303" y="109.022" fill="#44433f"></rect>
      <rect width="6.621" height="4.848" x="80.805" y="109.022" fill="#44433f"></rect>
      <rect width="11.877" height="4.848" x="87.426" y="109.022" fill="#44433f"></rect>
      <rect width="6.621" height="14.47" x="99.303" y="113.87" fill="#44433f"></rect>
      <rect width="11.877" height="14.47" x="87.426" y="113.87" fill="#44433f"></rect>
      <rect width="6.621" height="14.47" x="80.805" y="113.87" fill="#44433f"></rect>
      <rect width="1.112" height="14.47" x="80.249" y="113.87" fill="#595854"></rect>
      <rect width=".422" height="14.47" x="93.154" y="113.87" fill="#595854"></rect>
      <polygon fill="#595854" points="106.48 128.34 105.368 128.34 105.368 114.426 81.361 114.426 81.361 128.34 80.249 128.34 80.249 113.314 106.48 113.314"></polygon>
      <polygon fill="#595854" points="106.48 113.87 105.368 113.87 105.368 109.578 81.361 109.578 81.361 113.87 80.249 113.87 80.249 108.466 106.48 108.466"></polygon>
      <rect width="1.112" height="14.47" x="86.869" y="113.87" fill="#595854"></rect>
      <rect width="1.112" height="14.47" x="98.747" y="113.87" fill="#595854"></rect>
      <rect width="1.112" height="4.848" x="92.808" y="109.022" fill="#595854"></rect>
      <rect width="1.112" height="4.848" x="98.747" y="109.022" fill="#595854"></rect>
      <polygon fill="#595854" points="80.249 113.87 81.361 113.87 81.361 109.578 105.368 109.578 105.368 113.87 106.48 113.87 106.48 108.466 80.249 108.466"></polygon>
      <rect width="1.112" height="4.848" x="86.869" y="109.022" fill="#595854"></rect>
      <g>
        <path fill="#f9f6c9" d="M94.7703323 122.5191422c0 .1498489-.1233673.2820435-.2820435.2820435-.1500626 0-.2822571-.1321945-.2822571-.2820435 0-.114975.0617905-.2118607.1586761-.2557755v-1.7637405c-.0968857-.0529633-.1586761-.141243-.1586761-.2557831 0-.1588898.1321945-.2824707.2822571-.2824707.1586761 0 .2820435.1235809.2820435.2824707 0 .1145401-.0615768.2028198-.1498489.2557831v1.7637405C94.7087555 122.3072815 94.7703323 122.4041672 94.7703323 122.5191422zM92.6654358 122.5191422c0 .1498489-.1233673.2820435-.2820435.2820435-.1500626 0-.2822571-.1321945-.2822571-.2820435 0-.114975.0617905-.2118607.1586761-.2557755v-1.7637405c-.0968857-.0529633-.1586761-.141243-.1586761-.2557831 0-.1588898.1321945-.2824707.2822571-.2824707.1586761 0 .2820435.1235809.2820435.2824707 0 .1145401-.0615768.2028198-.1498489.2557831v1.7637405C92.6038589 122.3072815 92.6654358 122.4041672 92.6654358 122.5191422z"></path>
      </g>
    </g>
    <g>
      <path fill="#fff" d="M84.2619247 98.895462v-2.1297913h.4752121v1.7062759h.9080276v.4235153H84.2619247zM87.5098267 98.895462l-.197998-.4600906h-.8927765l-.197998.4600906h-.5058365l.9201813-2.1297913h.4600906l.9201813 2.1297913H87.5098267zM86.8669891 97.3993912l-.2681656.6185379h.5332336L86.8669891 97.3993912zM89.1948395 98.895462h-.9323273v-2.1297913h.8286819c.1441879 0 .2686691.0172272.3733063.0517578.1045151.0345917.1832428.0812683.2360535.1401596.0954666.109726.1432037.2336426.1432037.3717575 0 .1665649-.0538101.2904816-.1614227.3717499-.0365753.0284576-.0619965.0461884-.0761261.0533142-.0142593.0071259-.0396729.0187836-.0762482.0350266.1320419.02845.237175.0878372.3154068.178215.0781021.0904465.1172867.202652.1172867.336731 0 .1482849-.0508347.2792664-.1523743.3930206C89.6924973 98.8294373 89.4873123 98.895462 89.1948395 98.895462zM88.7377243 97.6279526h.2255249c.1320343 0 .2301025-.0141983.294075-.0426559.0639801-.02845.0959625-.0898819.0959625-.1843567 0-.0944672-.0295029-.1569595-.0883942-.1873932-.0588913-.0304413-.1584473-.0456848-.2985458-.0456848h-.2286224V97.6279526zM88.7377243 98.4932709h.3260727c.1360016 0 .2381668-.0167999.3062286-.0502777.0680618-.0335312.1020355-.0994949.1020355-.1980591 0-.0985031-.0360794-.1634674-.1081085-.195015-.0721588-.0314331-.1874619-.0471802-.3459091-.0471802h-.2803192V98.4932709zM92.1533813 98.6014404c-.2153549.2102127-.480423.3153458-.7952118.3153458-.3149109 0-.5799789-.1051331-.7952042-.3153458-.2153549-.2102661-.3230972-.4717407-.3230972-.7846069 0-.3127365.1077423-.5743408.3230972-.7846069.2152252-.2102127.4802933-.3153458.7952042-.3153458.3147888 0 .5798569.1051331.7952118.3153458.2153549.2102661.3229675.4718704.3229675.7846069C92.4763489 98.1296997 92.3687363 98.3911743 92.1533813 98.6014404zM91.9919586 97.8183823c0-.1899338-.060997-.3519135-.182869-.4860001s-.2716446-.2010956-.4494324-.2010956-.3275528.067009-.4494247.2010956-.1827469.2960663-.1827469.4860001c0 .1899414.0608749.3514252.1827469.4844513.1218719.1330948.271637.1995468.4494247.1995468s.3275604-.066452.4494324-.1995468C91.9309616 98.1698074 91.9919586 98.0083237 91.9919586 97.8183823zM94.6060791 97.4725418c0 .3412552-.1351395.5616913-.4051666.6611862l.5391846.761734h-.584938l-.4722366-.6794739h-.3291702v.6794739H92.87854v-2.1297913h.8073578c.3311539 0 .5672073.0559158.7084198.1675568C94.5355301 97.0449982 94.6060791 97.2247696 94.6060791 97.4725418zM94.033287 97.7254562c.0588913-.0528107.0884018-.1366196.0884018-.2513657s-.0305023-.1935349-.0914993-.2361832c-.0608749-.0426483-.1674957-.0639725-.31987-.0639725h-.3565674v.6306839h.3473969C93.8636856 97.8046188 93.9742737 97.7782745 94.033287 97.7254562zM96.6109619 98.895462l-.197998-.4600906h-.8927841l-.1979904.4600906h-.5058441l.9201813-2.1297913h.4600906l.9201813 2.1297913H96.6109619zM95.9681244 97.3993912l-.2681732.6185379h.5332413L95.9681244 97.3993912zM98.1101303 97.1769714v1.7184906h-.4753418v-1.7184906h-.6032867v-.4113007h1.6819153v.4113007H98.1101303zM100.7942963 98.6014404c-.2153549.2102127-.480423.3153458-.7952042.3153458-.3149109 0-.5799789-.1051331-.7952118-.3153458-.2153549-.2102661-.3230896-.4717407-.3230896-.7846069 0-.3127365.1077347-.5743408.3230896-.7846069.2152328-.2102127.4803009-.3153458.7952118-.3153458.3147812 0 .5798492.1051331.7952042.3153458.2153549.2102661.3229675.4718704.3229675.7846069C101.1172638 98.1296997 101.0096512 98.3911743 100.7942963 98.6014404zM100.6328735 97.8183823c0-.1899338-.060997-.3519135-.182869-.4860001s-.271637-.2010956-.4494247-.2010956-.3275604.067009-.4494324.2010956-.1827469.2960663-.1827469.4860001c0 .1899414.0608749.3514252.1827469.4844513.1218719.1330948.2716446.1995468.4494324.1995468s.3275528-.066452.4494247-.1995468C100.5718765 98.1698074 100.6328735 98.0083237 100.6328735 97.8183823zM103.2471161 97.4725418c0 .3412552-.1351318.5616913-.4051666.6611862l.5391922.761734h-.584938l-.4722366-.6794739h-.3291702v.6794739h-.4752121v-2.1297913h.8073578c.3311462 0 .5672073.0559158.7084198.1675568C103.1765747 97.0449982 103.2471161 97.2247696 103.2471161 97.4725418zM102.6743317 97.7254562c.0588913-.0528107.0883942-.1366196.0883942-.2513657s-.0304947-.1935349-.0914917-.2361832c-.0608749-.0426483-.1674957-.0639725-.31987-.0639725h-.3565674v.6306839h.3473892C102.5047302 97.8046188 102.6153183 97.7782745 102.6743317 97.7254562zM104.5968933 98.895462h-.4753418v-.8409576l-.7373123-1.2888336h.5148926l.4600906.7921677.4600906-.7921677h.5148849l-.7373047 1.2888336V98.895462z"></path>
    </g>
    <rect width="28.137" height="1.014" x="80.73" y="100.434" fill="#fff"></rect>
    <rect width="28.137" height="1.014" x="80.73" y="94.186" fill="#fff"></rect>
  </g>
  <polygon fill="#2c2c34" points="77.52 25.363 77.52 81.693 23.76 27.933 23.76 25.363" opacity=".08"></polygon>
  <polygon fill="#2c2c34" points="112.08 87.313 112.08 123.613 94.54 106.074 77.52 89.044 77.52 87.313" opacity=".08"></polygon>
  <polygon fill="#2c2c34" points="112.08 7.983 112.08 43.883 77.52 9.333 77.52 7.983" opacity=".08"></polygon>
</svg>
