<svg xmlns="http://www.w3.org/2000/svg" width="64" height="64" id="restaurant">
  <path fill="#eee" d="M20.742 15.838a.499.499 0 0 0-.353.854l3.537 3.535 2.121 2.121a.499.499 0 1 1-.707.707l-2.121-2.12-3.537-3.536a.499.499 0 1 0-.707.707l3.537 3.535 2.121 2.121a.499.499 0 1 1-.707.707l-2.121-2.12-3.537-3.536a.499.499 0 1 0-.707.707l3.535 3.535h.004l2.119 2.12a.499.499 0 1 1-.707.706l-2.123-2.12-3.182-3.182-.353-.354a.499.499 0 1 0-.707.707l.353.354 3.182 3.181 2.12 2.123 1.063 1.06a1.484 1.484 0 0 0 1.627.317l1.531-.646L45.254 47.7a.962.962 0 0 0 1.38.019l1.206-1.204a1.021 1.021 0 0 0-.023-1.464L27.483 25.857l.647-1.53a1.484 1.484 0 0 0-.317-1.628l-3.181-3.182-3.537-3.535a.498.498 0 0 0-.354-.146z"></path>
  <path fill="#dbdbdb" d="M20.742 15.836v.002a.498.498 0 0 0-.353.146.496.496 0 0 0-.112.18l3.356 3.354 3.182 3.181c.427.428.552 1.072.316 1.63l-.647 1.528 20.334 19.194c.42.395.429 1.057.023 1.465l-1.205 1.203a.95.95 0 0 1-.182.14.962.962 0 0 0 1.182-.14l1.205-1.203a1.02 1.02 0 0 0-.023-1.465L27.484 25.857l.647-1.529a1.484 1.484 0 0 0-.317-1.629l-3.181-3.181-3.537-3.536a.498.498 0 0 0-.354-.146zm-1.414 1.416a.498.498 0 0 0-.353.147c1.831 1.94 1.43 1.514 5.719 5.803a.498.498 0 0 0 .466-.327l-1.941-1.941-3.537-3.535a.498.498 0 0 0-.353-.147zm-1.414 1.414a.5.5 0 0 0-.353.147c1.848 1.848 3.74 3.824 5.719 5.803a.498.498 0 0 0 .466-.327l-1.941-1.941-3.537-3.535a.498.498 0 0 0-.354-.147zM16.5 20.078a.498.498 0 0 0-.353.147c1.417 1.492 1.423 1.508 5.719 5.803a.498.498 0 0 0 .466-.326L20.39 23.76l-3.182-3.181-.353-.354a.498.498 0 0 0-.353-.146zm9.242 6.939-2.25.95-.078.03c.35.126.735.116 1.078-.03l1.535-.648z"></path>
  <path fill="#ff5751" d="m31.502 29.772 2.122 2.121-14.142 14.142a1 1 0 0 1-1.415 0l-1.415-1.415a.952.952 0 0 1 .034-1.378z"></path>
  <path fill="#d34f5c" d="m31.502 29.772-.786.715 1.407 1.406-14.098 14.1.043.043a1 1 0 0 0 1.414 0l14.143-14.143-2.123-2.12z"></path>
  <path fill="#eee" fill-rule="evenodd" d="M32.563 32.954 47.766 17.75c-4.42-.884-7.778.707-10.96 3.89l-7.778 7.777z"></path>
  <path fill="#f4f4f4" fill-rule="evenodd" d="M47.766 17.75c-4.42-.883-7.778.708-10.96 3.89l-7.778 7.778.707.707 8.297-8.297c2.879-2.878 5.905-4.448 9.726-4.069z"></path>
  <path fill="#f3877e" d="M92.484 292.73a.132.132 0 0 0-.08.036l-.49.447-.488.445-.246.223a.132.132 0 1 0 .177.195l.247-.223.49-.445.488-.445a.132.132 0 0 0-.098-.233zm-1.7 1.56a.132.132 0 0 0-.095.036l-.244.223a.132.132 0 1 0 .178.195l.244-.223a.132.132 0 0 0-.084-.232z" color="#000" font-family="sans-serif" font-weight="400" overflow="visible" style="line-height:normal;text-indent:0;text-align:start;text-decoration-line:none;text-decoration-style:solid;text-decoration-color:#000;text-transform:none;block-progression:tb;isolation:auto;mix-blend-mode:normal" transform="translate(-321.035 -1073.75)scale(3.77953)"></path>
  <path fill="#dbdbdb" fill-rule="evenodd" d="M45.386 17.508c-.24.001-.475.012-.709.027.515.034 1.043.106 1.588.214L31.812 32.203l.75.75 15.203-15.204a11.935 11.935 0 0 0-2.379-.242z"></path>
  <path fill="#ff5751" d="m29.028 28.711 3.89 3.89-.353.354-.354.354-3.89-3.89a.5.5 0 1 1 .707-.708z"></path>
</svg>
