<svg xmlns="http://www.w3.org/2000/svg" xmlns:xlink="http://www.w3.org/1999/xlink" enable-background="new 0 0 512 512" viewBox="0 0 512 512" id="RestaurantMenu">
  <ellipse cx="256" cy="266.8" fill="#65cdfc" rx="245" ry="245.2" class="color65dffc svgShape"></ellipse>
  <ellipse cx="256" cy="221.7" fill="#9ab3fd" rx="200" ry="200.2" class="color9ae6fd svgShape"></ellipse>
  <defs>
    <ellipse id="a" cx="256" cy="266.8" rx="245" ry="245.2" fill="#000000" class="color000000 svgShape"></ellipse>
  </defs>
  <clipPath id="b">
    <use xlink:href="#a" overflow="visible" fill="#000000" class="color000000 svgShape"></use>
  </clipPath>
  <g clip-path="url(#b)" fill="#000000" class="color000000 svgShape">
    <rect width="50.1" height="164.8" x="77.6" y="236" fill="#65cdfc" class="color65d2fc svgShape"></rect>
  </g>
  <g clip-path="url(#b)" fill="#000000" class="color000000 svgShape">
    <path fill="#0ea5e9" d="M67.6,186.1H6.8v214.6h70.8V196.1C77.6,190.6,73.1,186.1,67.6,186.1z" class="color65c8fc svgShape"></path>
  </g>
  <g clip-path="url(#b)" fill="#000000" class="color000000 svgShape">
    <rect width="80.8" height="180.7" x="354" y="220.1" fill="#65cdfc" class="color65d2fc svgShape"></rect>
  </g>
  <g clip-path="url(#b)" fill="#000000" class="color000000 svgShape">
    <rect width="70.8" height="192" x="206" y="208.8" fill="#65cdfc" class="color65d2fc svgShape"></rect>
  </g>
  <g clip-path="url(#b)" fill="#000000" class="color000000 svgShape">
    <polygon fill="#0ea5e9" points="355.2 174.8 275.2 140.8 275.2 400.8 355.2 400.8" class="color65c8fc svgShape"></polygon>
  </g>
  <g clip-path="url(#b)" fill="#000000" class="color000000 svgShape">
    <path fill="#0ea5e9" d="M505.2,183.8l-56.5-27.1c-6.6-3.2-14.3,1.7-14.3,9v235h70.8V183.8z" class="color65c8fc svgShape"></path>
  </g>
  <g clip-path="url(#b)" fill="#000000" class="color000000 svgShape">
    <rect width="512" height="122" y="390" fill="#bc7b0c" class="colorbc6c0c svgShape"></rect>
  </g>
  <g clip-path="url(#b)" fill="#000000" class="color000000 svgShape">
    <rect width="512" height="122" y="410" fill="#d88d0f" class="colord8780f svgShape"></rect>
  </g>
  <path fill="#27a0d6" d="M376,0H136c-11,0-20,9-20,20v404c0,11,9,20,20,20h240c11,0,20-9,20-20V20C396,9,387,0,376,0z" class="color7327d6 svgShape"></path>
  <path fill="#ffffff" d="M271.8,427.2h-31.7c-2.8,0-5-2.2-5-5s2.2-5,5-5h31.7c2.8,0,5,2.2,5,5S274.6,427.2,271.8,427.2z" class="colorffffff svgShape"></path>
  <polygon fill="#ffffff" points="332.7 466.3 339.2 469.8 332.7 473.4 329.2 479.8 325.7 473.4 319.2 469.8 325.7 466.3 329.2 459.8" class="colorffffff svgShape"></polygon>
  <polygon fill="#ffffff" points="419.5 143.6 426 147.1 419.5 150.7 416 157.1 412.5 150.7 406 147.1 412.5 143.6 416 137.1" class="colorffffff svgShape"></polygon>
  <polygon fill="#ffffff" points="56.2 315.6 62.7 319.2 56.2 322.7 52.7 329.2 49.1 322.7 42.7 319.2 49.1 315.6 52.7 309.2" class="colorffffff svgShape"></polygon>
  <path fill="#ffffff" d="M146,389V40c0-5.5,4.5-10,10-10h200c5.5,0,10,4.5,10,10v349c0,5.5-4.5,10-10,10H156
				C150.5,399,146,394.5,146,389z" class="colorffffff svgShape"></path>
  <path fill="#e8eaf0" d="M161,284V30h-5c-5.5,0-10,4.5-10,10v349c0,5.5,4.5,10,10,10h200c5.5,0,10-4.5,10-10v-5H261
				C205.8,384,161,339.2,161,284z" class="colorf4ebfb svgShape"></path>
  <circle cx="256" cy="230.1" r="7.6" fill="#d8dbe5" class="colordfd8e5 svgShape"></circle>
  <circle cx="256" cy="268.3" r="7.6" fill="#d8dbe5" class="colordfd8e5 svgShape"></circle>
  <circle cx="256" cy="306.4" r="7.6" fill="#d8dbe5" class="colordfd8e5 svgShape"></circle>
  <path fill="#e8eaf0" d="M320.4,104.6c0-13.7-13.3-24.8-29.7-24.8c-1.9,0-3.7,0.2-5.5,0.4C282.7,68.8,270.6,60,256,60
						c-14.6,0-26.7,8.7-29.2,20.2c-1.8-0.3-3.6-0.4-5.5-0.4c-16.4,0-29.7,11.1-29.7,24.8c0,10.1,7.2,18.8,17.6,22.6l5.8,27.4
						c0.8,3.7,4.1,6.4,7.9,6.4h66.3c3.8,0,7.1-2.7,7.9-6.4l5.8-27.4C313.2,123.4,320.4,114.7,320.4,104.6z" class="colorf4ebfb svgShape"></path>
  <path fill="#d8dbe5" d="M229,122L229,122c-1.4-6.5-5.2-12.3-10.5-16.3c-5.9-4.5-9.7-11-9.7-18.3c0-1.9,0.3-3.7,0.7-5.5
						c-10.6,3.8-18,12.6-18,22.8c0,10.1,7.2,18.8,17.6,22.6l5.8,27.4c0.8,3.7,4.1,6.4,7.9,6.4h66.3c3.8,0,7.1-2.7,7.9-6.4l2.3-10.9
						h-43.5C242.9,143.7,231.7,134.7,229,122z" class="colordfd8e5 svgShape"></path>
  <g fill="#000000" class="color000000 svgShape">
    <path fill="#1a2744" d="M241.9 371.1l-13.4-45.9-19.8-63.6c-3-8.6.1-17.6 4.6-25.1 4.8-7.8 6.4-18.4 3.5-29.1-4.9-18.4-21.1-30-36.1-26-15 4-23.2 22.2-18.2 40.5 2.8 10.4 9.2 18.7 17 23.1 7.6 4.6 15.5 10.8 17.2 20.1l14.7 65 11.3 46.1c1.3 5.5 6.9 8.8 12.3 7.3C240.3 382.1 243.5 376.5 241.9 371.1zM346.9 188.9c-2.9-.8-5.9 1-6.7 3.9l-9.1 34-10.6-2.8 9.1-34c.8-2.9-1-5.9-3.9-6.7l0 0c-2.9-.8-5.9 1-6.7 3.9l-9.1 34-10.6-2.8 9.1-34c.8-2.9-1-5.9-3.9-6.7l0 0c-2.9-.8-5.9 1-6.7 3.9l-9 33.4c-1.5 5.6-1.2 11.2.6 16.2l0 0c3.5 10.2 13.5 14.7 9.8 27l-20.2 65-13.3 45.6c-1.6 5.4 1.6 11 7 12.5 5.4 1.5 11-1.8 12.3-7.3l11.4-46.5 14.9-66.1c1.9-11.3 14.6-12.2 22-18.5l0 0c4.1-3.5 7.2-8.2 8.6-13.7l9-33.4C351.6 192.7 349.9 189.7 346.9 188.9z" class="color464266 svgShape"></path>
  </g>
  <g fill="#000000" class="color000000 svgShape">
    <polygon fill="#d88d0f" points="462.1 270.6 447.2 262 423.5 311.4 431.2 315.8" class="colord8780f svgShape"></polygon>
    <polygon fill="#e0a43f" points="462.1 270.6 447.2 262 441.8 273.2 455.1 280.9" class="colore0933f svgShape"></polygon>
    <polygon fill="#e0a43f" points="435 287.6 428.1 301.9 437.2 307.1 446.1 294" class="colore0933f svgShape"></polygon>
    <polygon fill="#d88d0f" points="435.3 273.7 426.1 270.3 417.7 300.3 422.4 302" class="colord8780f svgShape"></polygon>
    <polygon fill="#e0a43f" points="435.3 273.7 426.1 270.3 424.2 277.1 432.4 280.1" class="colore0933f svgShape"></polygon>
    <polygon fill="#e0a43f" points="421.8 285.8 419.3 294.5 424.9 296.5 428.6 288.3" class="colore0933f svgShape"></polygon>
    <circle cx="398.5" cy="299.3" r="25.3" fill="#ffbe4f" class="colorffc14f svgShape"></circle>
    <path fill="#ffaf27" d="M383.2,289.3c0-4.4,1.1-8.6,3.1-12.2c-7.8,4.3-13.1,12.6-13.1,22.2c0,14,11.3,25.3,25.3,25.3
							c9.6,0,17.9-5.3,22.2-13.1c-3.6,2-7.8,3.1-12.2,3.1C394.5,314.6,383.2,303.2,383.2,289.3z" class="colorffa727 svgShape"></path>
    <circle cx="390.8" cy="284.4" r="2.5" fill="#ffffff" class="colorffffff svgShape"></circle>
    <circle cx="396.3" cy="293.5" r="2.5" fill="#ffffff" class="colorffffff svgShape"></circle>
    <circle cx="401.8" cy="284.4" r="2.5" fill="#ffffff" class="colorffffff svgShape"></circle>
    <circle cx="420.1" cy="320.2" r="25.3" fill="#3a62db" class="colordb3ab1 svgShape"></circle>
    <path fill="#d8931f" d="M404.7,310.2c0-4.4,1.1-8.6,3.1-12.2c-7.8,4.3-13.1,12.6-13.1,22.2c0,14,11.3,25.3,25.3,25.3
							c9.6,0,17.9-5.3,22.2-13.1c-3.6,2-7.8,3.1-12.2,3.1C416.1,335.6,404.7,324.2,404.7,310.2z" class="colord81f89 svgShape"></path>
    <g fill="#000000" class="color000000 svgShape">
      <circle cx="376.4" cy="320.8" r="25.3" fill="#00d852" class="color00d814 svgShape"></circle>
      <path fill="#009c3b" d="M361,310.8c0-4.4,1.1-8.6,3.1-12.2c-7.8,4.3-13.1,12.6-13.1,22.2c0,14,11.3,25.3,25.3,25.3
							c9.6,0,17.9-5.3,22.2-13.1c-3.6,2-7.8,3.1-12.2,3.1C372.4,336.1,361,324.8,361,310.8z" class="color02c119 svgShape"></path>
    </g>
    <g fill="#000000" class="color000000 svgShape">
      <circle cx="429.2" cy="317.9" r="2.5" fill="#ffffff" class="colorffffff svgShape"></circle>
      <circle cx="423.7" cy="308.8" r="2.5" fill="#ffffff" class="colorffffff svgShape"></circle>
      <circle cx="434.7" cy="308.8" r="2.5" fill="#ffffff" class="colorffffff svgShape"></circle>
    </g>
    <g fill="#000000" class="color000000 svgShape">
      <path fill="#99b2ff" d="M351.6,325.7c0,25.8,20.9,46.7,46.7,46.7c25.8,0,46.7-20.9,46.7-46.7H351.6z" class="colorffd899 svgShape"></path>
      <path fill="#ffca71" d="M435.9,353.3c-7.7,5.7-17.3,9.1-27.6,9.1c-22.3,0-41-15.7-45.6-36.7h-11.1c0,23.6,17.5,43.1,40.2,46.2v34.2
				c-11.5,0.9-20,4-20,7.8c0,4.4,11.9,8.1,26.5,8.1c14.6,0,26.5-3.6,26.5-8.1c0-3.8-8.5-6.9-20-7.8v-34.2
				C417.4,370.2,428.6,363.2,435.9,353.3z" class="colorffcd71 svgShape"></path>
    </g>
    <g fill="#000000" class="color000000 svgShape">
      <path fill="#009c3b" d="M355.9,342L355.9,342c-2.7,0-4.8-2.2-4.8-4.8V322c0-0.7,0.5-1.2,1.2-1.2h7.2c0.7,0,1.2,0.5,1.2,1.2v15.2
				C360.7,339.8,358.5,342,355.9,342z" class="color02c119 svgShape"></path>
    </g>
    <g fill="#000000" class="color000000 svgShape">
      <path fill="#99b2ff" d="M370.3,325.7v-0.8c0-2.7-2.2-4.8-4.8-4.8c-2.7,0-4.8,2.2-4.8,4.8v0.8H370.3z" class="colorffd899 svgShape"></path>
    </g>
    <g fill="#000000" class="color000000 svgShape">
      <path fill="#00d852" d="M375.2,335.2L375.2,335.2c-2.7,0-4.8-2.2-4.8-4.8v-15.2c0-2.7,2.2-4.8,4.8-4.8l0,0c2.7,0,4.8,2.2,4.8,4.8
				v15.2C380,333,377.8,335.2,375.2,335.2z" class="color00d814 svgShape"></path>
    </g>
    <g fill="#000000" class="color000000 svgShape">
      <circle cx="375.1" cy="312.6" r="2.5" fill="#ffffff" class="colorffffff svgShape"></circle>
      <circle cx="365" cy="310.1" r="2.5" fill="#ffffff" class="colorffffff svgShape"></circle>
      <circle cx="372.6" cy="302.6" r="2.5" fill="#ffffff" class="colorffffff svgShape"></circle>
    </g>
  </g>
  <g fill="#000000" class="color000000 svgShape">
    <circle cx="86" cy="104.3" r="75" fill="#ffaf27" class="colorffa727 svgShape"></circle>
    <path fill="#f59e0b" d="M31,84.3c0-15.6,4.8-30.1,12.9-42.1C24.1,55.7,11,78.5,11,104.3c0,41.4,33.6,75,75,75
								c25.8,0,48.6-13.1,62.1-32.9c-12,8.2-26.5,12.9-42.1,12.9C64.6,159.3,31,125.6,31,84.3z" class="colorff9c1a svgShape"></path>
    <circle cx="86" cy="104.3" r="64" fill="#ffca71" class="colorffcd71 svgShape"></circle>
    <path fill="#ffbe4f" d="M86,168.3c12.9,0,25-3.9,35.1-10.5c-4.9,1-9.9,1.5-15.1,1.5c-41.4,0-75-33.6-75-75
							c0-5.2,0.5-10.2,1.5-15.1C25.9,79.3,22,91.4,22,104.3C22,139.6,50.7,168.3,86,168.3z" class="colorffc14f svgShape"></path>
    <path fill="#00d852" d="M92.8 54.4c-1-.6-2.4-.3-3.8.7-.7-1.7-1.8-2.8-3.1-2.8s-2.3 1.1-3.1 2.8c-1.4-1-2.8-1.3-3.8-.7-1.9 1.1-1.7 4.9.4 8.6 1.8 3.2 4.5 5.1 6.4 4.9 1.9.3 4.6-1.7 6.4-4.9C94.5 59.3 94.7 55.5 92.8 54.4zM121.1 69.6c-.3-1.1-1.5-1.9-3.1-2.2.7-1.7.7-3.2-.2-4.1s-2.4-.9-4.1-.2c-.3-1.7-1.1-2.8-2.2-3.1-2.1-.6-4.7 2.3-5.8 6.3-.9 3.5-.4 6.8 1.1 8 1.2 1.5 4.5 2 8 1.1C118.9 74.3 121.7 71.7 121.1 69.6zM66.3 66.3c-1.1-4.1-3.7-6.9-5.8-6.3-1.1.3-1.9 1.5-2.2 3.1-1.7-.7-3.2-.7-4.1.2s-.9 2.4-.2 4.1c-1.7.3-2.8 1.1-3.1 2.2-.6 2.1 2.3 4.7 6.3 5.8 3.5.9 6.8.4 8-1.1C66.7 73.2 67.2 69.8 66.3 66.3zM92.4 145.6c-1.8-3.2-4.5-5.1-6.4-4.9-1.9-.3-4.6 1.7-6.4 4.9-2.1 3.6-2.3 7.5-.4 8.6 1 .6 2.4.3 3.8-.7.7 1.7 1.8 2.8 3.1 2.8s2.3-1.1 3.1-2.8c1.4 1 2.8 1.3 3.8.7C94.7 153.1 94.5 149.3 92.4 145.6zM114.8 133.2c-3.5-.9-6.8-.4-8 1.1-1.5 1.2-2 4.5-1.1 8 1.1 4.1 3.7 6.9 5.8 6.3 1.1-.3 1.9-1.5 2.2-3.1 1.7.7 3.2.7 4.1-.2.9-.9.9-2.4.2-4.1 1.7-.3 2.8-1.1 3.1-2.2C121.7 136.9 118.9 134.3 114.8 133.2zM65.2 134.3c-1.2-1.5-4.5-2-8-1.1-4.1 1.1-6.9 3.7-6.3 5.8.3 1.1 1.5 1.9 3.1 2.2-.7 1.7-.7 3.2.2 4.1.9.9 2.4.9 4.1.2.3 1.7 1.1 2.8 2.2 3.1 2.1.6 4.7-2.3 5.8-6.3C67.2 138.7 66.7 135.4 65.2 134.3z" class="color00d814 svgShape"></path>
    <path fill="#547e91" d="M88.4,80.9c-14.6,0-26.4,6.9-26.4,15.5s11.8,15.5,26.4,15.5c2.9,0,5.8-0.3,8.4-0.8l6.3-23.9
						c0.7-2.7-1.1-5.3-3.8-5.7C96,81,92.3,80.9,88.4,80.9z" class="color547b91 svgShape"></path>
    <path fill="#547e91" d="M88.4,131.3c-14.6,0-26.4-6.9-26.4-15.5s11.8-15.5,26.4-15.5c2.9,0,5.8,0.3,8.4,0.8l6.3,23.9
						c0.7,2.7-1.1,5.3-3.8,5.7C96,131.1,92.3,131.3,88.4,131.3z" class="color547b91 svgShape"></path>
    <path fill="#48577a" d="M130.5,108.7c-1.9-1.6-4.2-2.3-6.3-2.6c2-0.3,4.4-1,6.3-2.6c4.3-3.6,4.5-10.3,4.5-10.3s-6.7-0.9-10.9,2.6
				c-2.8,2.4-3.9,6.2-4.3,8.4c-6.9-4.4-25.4-15.2-41.5-15.2c-20.2,0-41.2,7.6-41.2,17c0,9.4,21,17,41.2,17
				c16.1,0,34.7-10.8,41.5-15.2c0.4,2.3,1.4,6,4.3,8.4c4.3,3.6,10.9,2.6,10.9,2.6S134.7,112.2,130.5,108.7z" class="color486b7a svgShape"></path>
    <path fill="#547e91" d="M57.2 91.8c-11.5 3-20.2 8.3-20.2 14.3 0 6 8.7 11.3 20.2 14.3 2.5-3.7 4.1-8.7 4.1-14.3C61.3 100.5 59.7 95.4 57.2 91.8zM73.3 115.2c1.6-2.3 2.6-5.6 2.6-9.1 0-3.6-1-6.8-2.6-9.1M84.7 115.2c1.6-2.3 2.6-5.6 2.6-9.1 0-3.6-1-6.8-2.6-9.1M96.1 115.2c1.6-2.3 2.6-5.6 2.6-9.1 0-3.6-1-6.8-2.6-9.1" class="color547b91 svgShape"></path>
    <path fill="#48577a" d="M43,106.9c0.5-0.2,0.8-0.8,0.6-1.3c-0.2-0.5-0.8-0.8-1.3-0.6c-1.1,0.4-3.9,1-5.1-0.3
						c-0.1,0.4-0.2,0.9-0.2,1.3c0,0.3,0,0.7,0.1,1c0.7,0.3,1.5,0.4,2.3,0.4C41.2,107.5,42.9,107,43,106.9z" class="color486b7a svgShape"></path>
    <circle cx="49.6" cy="101.1" r="2.1" fill="#48577a" class="color486b7a svgShape"></circle>
  </g>
</svg>
