<svg xmlns="http://www.w3.org/2000/svg" xmlns:xlink="http://www.w3.org/1999/xlink" xmlns:svgjs="http://svgjs.com/svgjs" id="SvgjsSvg1001" width="288" height="288" version="1.1"><defs id="SvgjsDefs1002"/><g id="SvgjsG1008"><svg xmlns="http://www.w3.org/2000/svg" enable-background="new 0 0 66 66" viewBox="0 0 66 66" width="288" height="288"><polygon fill="#d0d0d0" points="44.9 1 43.8 6.8 49.7 6.8 48.6 1" class="svgShape colorfad22c-0 selectable"/><polygon fill="#f59e0b" points="48.6 1 46.7 1 46.7 6.8 49.7 6.8" class="svgShape colore0b624-1 selectable"/><polygon fill="#d0d0d0" points="48.6 28.9 49.7 23.1 43.8 23.1 44.9 28.9" class="svgShape colorfad22c-2 selectable"/><polygon fill="#f59e0b" points="44.9 28.9 46.9 28.9 46.9 23.1 43.8 23.1" class="svgShape colore0b624-3 selectable"/><polygon fill="#d0d0d0" points="60.7 13.1 54.9 12 54.9 17.9 60.7 16.8" class="svgShape colorfad22c-4 selectable"/><polygon fill="#f59e0b" points="60.7 16.8 60.7 14.9 54.9 14.9 54.9 17.9" class="svgShape colore0b624-5 selectable"/><polygon fill="#d0d0d0" points="32.8 16.8 38.6 17.9 38.6 12 32.8 13.1" class="svgShape colorfad22c-6 selectable"/><polygon fill="#f59e0b" points="32.8 13.1 32.8 15.1 38.6 15.1 38.6 12" class="svgShape colore0b624-7 selectable"/><polygon fill="#d0d0d0" points="55.3 3.8 50.4 7.1 54.6 11.3 58 6.4" class="svgShape colorfad22c-8 selectable"/><polygon fill="#f59e0b" points="58 6.4 56.6 5 52.5 9.1 54.6 11.3" class="svgShape colore0b624-9 selectable"/><polygon fill="#d0d0d0" points="38.2 26.2 43.1 22.8 38.9 18.6 35.6 23.5" class="svgShape colorfad22c-10 selectable"/><polygon fill="#f59e0b" points="35.6 23.5 37 24.9 41.1 20.8 38.9 18.6" class="svgShape colore0b624-11 selectable"/><polygon fill="#d0d0d0" points="58 23.5 54.6 18.6 50.4 22.8 55.3 26.2" class="svgShape colorfad22c-12 selectable"/><polygon fill="#f59e0b" points="55.3 26.2 56.7 24.8 52.6 20.7 50.4 22.8" class="svgShape colore0b624-13 selectable"/><polygon fill="#d0d0d0" points="35.6 6.4 38.9 11.3 43.1 7.1 38.2 3.8" class="svgShape colorfad22c-14 selectable"/><polygon fill="#f59e0b" points="38.2 3.8 36.8 5.2 40.9 9.3 43.1 7.1" class="svgShape colore0b624-15 selectable"/><path fill="#d0d0d0" d="M57,12.4c-0.2-1-0.7-1.9-1.2-2.8c-0.5-0.8-1-1.5-1.7-2.1c-0.6-0.6-1.3-1.1-2-1.5c-0.9-0.5-1.8-0.9-2.8-1.2    c-0.8-0.2-1.7-0.3-2.6-0.3h-0.1c-0.9,0-1.7,0.1-2.5,0.3c-1,0.2-2,0.7-2.8,1.2s-1.5,1-2.1,1.7c-0.6,0.6-1.1,1.3-1.5,2    c-0.5,0.9-0.9,1.8-1.2,2.8c-0.2,0.8-0.3,1.7-0.3,2.6v0.1c0,0.9,0.1,1.7,0.3,2.5c0.2,1,0.7,2,1.2,2.8s1,1.5,1.7,2.1    c0.6,0.6,1.3,1.1,2,1.5c0.9,0.5,1.8,0.9,2.8,1.2c0.8,0.2,1.7,0.3,2.6,0.3h0.1c0.9,0,1.7-0.1,2.5-0.3c1-0.2,2-0.7,2.8-1.2    s1.5-1,2.1-1.7c0.6-0.6,1.1-1.3,1.5-2c0.5-0.9,0.9-1.8,1.2-2.8c0.2-0.8,0.3-1.7,0.3-2.6v-0.1C57.3,14,57.2,13.2,57,12.4z M50.4,15    c0,2.1-1.7,3.8-3.8,3.8s-3.8-1.7-3.8-3.8s1.7-3.8,3.8-3.8C48.8,11.2,50.4,12.9,50.4,15z" class="svgShape colore8664a-16 selectable"/><path fill="#d0d0d0" d="M57,12.4c-0.2-1-0.7-1.9-1.2-2.8c-0.5-0.8-1-1.5-1.7-2.1c-0.6-0.6-1.3-1.1-2-1.5c-0.9-0.5-1.8-0.9-2.8-1.2    c-0.8-0.2-1.7-0.3-2.6-0.3h-0.1c-0.9,0-1.7,0.1-2.5,0.3c-1,0.2-2,0.7-2.8,1.2s-1.5,1-2.1,1.7c-0.6,0.6-1.1,1.3-1.5,2    c-0.5,0.9-0.9,1.8-1.2,2.8c-0.2,0.8-0.3,1.7-0.3,2.6v0.1c0,0.9,0.1,1.7,0.3,2.5c0.2,1,0.7,2,1.2,2.8s1,1.5,1.7,2.1    c0.6,0.6,1.3,1.1,2,1.5c0.9,0.5,1.8,0.9,2.8,1.2c0.8,0.2,1.7,0.3,2.6,0.3h0.1c0.9,0,1.7-0.1,2.5-0.3c1-0.2,2-0.7,2.8-1.2    s1.5-1,2.1-1.7c0.6-0.6,1.1-1.3,1.5-2c0.5-0.9,0.9-1.8,1.2-2.8c0.2-0.8,0.3-1.7,0.3-2.6v-0.1C57.3,14,57.2,13.2,57,12.4z M50.4,15    c0,2.1-1.7,3.8-3.8,3.8s-3.8-1.7-3.8-3.8s1.7-3.8,3.8-3.8C48.8,11.2,50.4,12.9,50.4,15z" class="svgShape colorfad22c-17 selectable"/><path fill="#d0d0d0" d="M46.7,8.8c-3.4,0-6.2,2.8-6.2,6.2s2.8,6.2,6.2,6.2s6.2-2.8,6.2-6.2C52.8,11.6,50.1,8.8,46.7,8.8z     M46.7,18.7c-2.1,0-3.8-1.7-3.8-3.8s1.7-3.8,3.8-3.8s3.8,1.7,3.8,3.8C50.4,17,48.8,18.7,46.7,18.7z" class="svgShape colorfad22c-18 selectable"/><g><path fill="none" d="M46.7,11.2c-2.1,0-3.8,1.7-3.8,3.8s1.7,3.8,3.8,3.8h0.1L46.7,11.2L46.7,11.2z" class="selectable"/><path fill="none" d="M50.4,15c0-2-1.6-3.7-3.7-3.8v7.5C48.8,18.7,50.4,17,50.4,15z" class="selectable"/><path fill="#f59e0b" d="M57,12.4c-0.2-1-0.7-1.9-1.2-2.8c-0.5-0.8-1-1.5-1.7-2.1c-0.6-0.6-1.3-1.1-2-1.5     c-0.9-0.5-1.8-0.9-2.8-1.2c-0.8-0.2-1.7-0.3-2.6-0.3v4.4c3.4,0.1,6.1,2.8,6.1,6.2s-2.7,6.1-6.1,6.2v4.4h0.1     c0.9,0,1.7-0.1,2.5-0.3c1-0.2,2-0.7,2.8-1.2s1.5-1,2.1-1.7c0.6-0.6,1.1-1.3,1.5-2c0.5-0.9,0.9-1.8,1.2-2.8     c0.2-0.8,0.3-1.7,0.3-2.6V15C57.3,14,57.2,13.2,57,12.4z" class="svgShape colore0b624-22 selectable"/><path fill="#f59e0b" d="M40.5,15c0,3.4,2.8,6.2,6.2,6.2h0.1v-2.4h-0.1c-2.1,0-3.8-1.7-3.8-3.8s1.7-3.8,3.8-3.8h0.1V8.8h-0.1     C43.3,8.8,40.5,11.6,40.5,15z" class="svgShape colore0b624-23 selectable"/></g><path fill="#e8eaf0" d="M58.5,33.9c0-5.1-3.8-9.3-8.8-9.8c0.1-0.5,0.1-1,0.1-1.5c0-7.5-7.6-12.6-14.6-9.8c-2-3.6-5.8-6.1-10.3-6.1   c-6.5,0-11.7,5.2-11.7,11.7c0,0.9,0.1,1.8,0.3,2.6c-4.8,1.4-8.3,5.9-8.3,11.2c0,6.5,5.2,11.7,11.7,11.7h31.9l0,0   C54.2,43.6,58.5,39.3,58.5,33.9z" class="svgShape colore6e6e8-24 selectable"/><g><rect width="3.8" height="6.7" x="31.7" y="45" fill="#46516a" class="svgShape color465c6a-26 selectable"/><rect width="1.9" height="6.7" x="31.7" y="45" fill="#1a2744" class="svgShape color3b4c56-27 selectable"/><path fill="#46516a" d="M33.6,17.9c-7.9,0-14.4,6.4-14.4,14.4c0,7.9,6.4,14.4,14.4,14.4c7.9,0,14.4-6.4,14.4-14.4     S41.5,17.9,33.6,17.9z M33.6,41.8c-5.3,0-9.6-4.3-9.6-9.6s4.3-9.6,9.6-9.6s9.6,4.3,9.6,9.6S38.9,41.8,33.6,41.8z" class="svgShape color465c6a-28 selectable"/><path fill="#46516a" d="M33.6,20.3c-6.6,0-12,5.4-12,12s5.4,12,12,12s12-5.4,12-12S40.2,20.3,33.6,20.3z M33.6,41.8     c-5.3,0-9.6-4.3-9.6-9.6s4.3-9.6,9.6-9.6s9.6,4.3,9.6,9.6S38.9,41.8,33.6,41.8z" class="svgShape color465c6a-29 selectable"/><path fill="#1a2744" d="M33.6 17.9v2.4c6.6 0 12 5.4 12 12s-5.4 12-12 12v2.4c7.9 0 14.4-6.4 14.4-14.4S41.5 17.9 33.6 17.9zM21.6 32.2c0 6.6 5.4 12 12 12v-2.4c-5.3 0-9.6-4.3-9.6-9.6s4.3-9.6 9.6-9.6v-2.4C27 20.3 21.6 25.6 21.6 32.2z" class="svgShape color3b4c56-30 selectable"/><path fill="#9facd5" d="M37,65h-6.8c-0.6,0-1.1-0.5-1.1-1.1v-14c0-0.6,0.5-1.1,1.1-1.1H37c0.6,0,1.1,0.5,1.1,1.1V64    C38,64.5,37.6,65,37,65z" class="svgShape colord5b79f-31 selectable"/><path fill="#8a99c6" d="M33.6,65h-3.4c-0.6,0-1.1-0.5-1.1-1.1v-14c0-0.6,0.5-1.1,1.1-1.1h3.4V65z" class="svgShape colorc6a28a-32 selectable"/></g><g><polygon fill="#d0d0d0" points="13.9 2.2 13.2 6.3 17.4 6.3 16.6 2.2" class="svgShape colore8664a-34 selectable"/><polygon fill="#d99d39" points="16.6 2.2 15.2 2.2 15.2 6.3 17.4 6.3" class="svgShape colord95239-35 selectable"/><polygon fill="#d0d0d0" points="16.6 22.2 17.4 18 13.2 18 13.9 22.2" class="svgShape colore8664a-36 selectable"/><polygon fill="#d99d39" points="13.9 22.2 15.4 22.2 15.4 18 13.2 18" class="svgShape colord95239-37 selectable"/><polygon fill="#d0d0d0" points="25.3 10.8 21.1 10.1 21.1 14.3 25.3 13.5" class="svgShape colore8664a-38 selectable"/><polygon fill="#d99d39" points="25.3 13.5 25.3 12.1 21.1 12.1 21.1 14.3" class="svgShape colord95239-39 selectable"/><polygon fill="#d0d0d0" points="5.3 13.5 9.4 14.3 9.4 10.1 5.3 10.8" class="svgShape colore8664a-40 selectable"/><polygon fill="#d99d39" points="5.3 10.8 5.3 12.3 9.4 12.3 9.4 10.1" class="svgShape colord95239-41 selectable"/><polygon fill="#d0d0d0" points="21.4 4.2 17.9 6.6 20.9 9.6 23.3 6.1" class="svgShape colore8664a-42 selectable"/><polygon fill="#d99d39" points="23.3 6.1 22.3 5.1 19.4 8 20.9 9.6" class="svgShape colord95239-43 selectable"/><polygon fill="#d0d0d0" points="9.2 20.2 12.7 17.8 9.7 14.8 7.3 18.3" class="svgShape colore8664a-44 selectable"/><polygon fill="#d99d39" points="7.3 18.3 8.3 19.3 11.2 16.4 9.7 14.8" class="svgShape colord95239-45 selectable"/><g><polygon fill="#d0d0d0" points="23.3 18.3 20.9 14.8 17.9 17.8 21.4 20.2" class="svgShape colore8664a-47 selectable"/><polygon fill="#d99d39" points="21.4 20.2 22.4 19.2 19.5 16.3 17.9 17.8" class="svgShape colord95239-48 selectable"/><polygon fill="#d0d0d0" points="7.3 6.1 9.7 9.6 12.7 6.6 9.2 4.2" class="svgShape colore8664a-49 selectable"/><polygon fill="#d99d39" points="9.2 4.2 8.2 5.2 11.1 8.1 12.7 6.6" class="svgShape colord95239-50 selectable"/></g><path fill="#d0d0d0" d="M22.6,10.3c-0.2-0.7-0.5-1.4-0.8-2s-0.7-1.1-1.2-1.5c-0.4-0.4-0.9-0.8-1.4-1.1c-0.6-0.4-1.3-0.7-2-0.8    c-0.6-0.1-1.2-0.2-1.8-0.2h-0.1c-0.6,0-1.2,0.1-1.8,0.2c-0.7,0.2-1.4,0.5-2,0.8C10.9,6,10.3,6.4,9.9,6.9C9.5,7.3,9.1,7.8,8.8,8.3    c-0.4,0.6-0.7,1.3-0.8,2c-0.1,0.6-0.2,1.2-0.2,1.8v0.1c0,0.6,0.1,1.2,0.2,1.8c0.2,0.7,0.5,1.4,0.8,2c0.3,0.6,0.7,1.1,1.2,1.5    c0.4,0.4,0.9,0.8,1.4,1.1c0.6,0.4,1.3,0.7,2,0.8c0.6,0.1,1.2,0.2,1.8,0.2h0.1c0.6,0,1.2-0.1,1.8-0.2c0.7-0.2,1.4-0.5,2-0.8    s1.1-0.7,1.5-1.2c0.4-0.4,0.8-0.9,1.1-1.4c0.4-0.6,0.7-1.3,0.8-2c0.1-0.6,0.2-1.2,0.2-1.8v-0.1C22.8,11.5,22.8,10.9,22.6,10.3z     M17.9,12.2c0,1.5-1.2,2.7-2.7,2.7s-2.7-1.2-2.7-2.7s1.2-2.7,2.7-2.7S17.9,10.7,17.9,12.2z" class="svgShape colore8664a-51 selectable"/><path fill="#d0d0d0" d="M22.6,10.3c-0.2-0.7-0.5-1.4-0.8-2s-0.7-1.1-1.2-1.5c-0.4-0.4-0.9-0.8-1.4-1.1c-0.6-0.4-1.3-0.7-2-0.8    c-0.6-0.1-1.2-0.2-1.8-0.2h-0.1c-0.6,0-1.2,0.1-1.8,0.2c-0.7,0.2-1.4,0.5-2,0.8C10.9,6,10.3,6.4,9.9,6.9C9.5,7.3,9.1,7.8,8.8,8.3    c-0.4,0.6-0.7,1.3-0.8,2c-0.1,0.6-0.2,1.2-0.2,1.8v0.1c0,0.6,0.1,1.2,0.2,1.8c0.2,0.7,0.5,1.4,0.8,2c0.3,0.6,0.7,1.1,1.2,1.5    c0.4,0.4,0.9,0.8,1.4,1.1c0.6,0.4,1.3,0.7,2,0.8c0.6,0.1,1.2,0.2,1.8,0.2h0.1c0.6,0,1.2-0.1,1.8-0.2c0.7-0.2,1.4-0.5,2-0.8    s1.1-0.7,1.5-1.2c0.4-0.4,0.8-0.9,1.1-1.4c0.4-0.6,0.7-1.3,0.8-2c0.1-0.6,0.2-1.2,0.2-1.8v-0.1C22.8,11.5,22.8,10.9,22.6,10.3z     M17.9,12.2c0,1.5-1.2,2.7-2.7,2.7s-2.7-1.2-2.7-2.7s1.2-2.7,2.7-2.7S17.9,10.7,17.9,12.2z" class="svgShape colore8664a-52 selectable"/><path fill="#d0d0d0" d="M15.2,7.8c-2.4,0-4.4,2-4.4,4.4s2,4.4,4.4,4.4s4.4-2,4.4-4.4C19.6,9.7,17.7,7.8,15.2,7.8z M15.2,14.9    c-1.5,0-2.7-1.2-2.7-2.7s1.2-2.7,2.7-2.7s2.7,1.2,2.7,2.7S16.7,14.9,15.2,14.9z" class="svgShape colore8664a-53 selectable"/><g><path fill="none" d="M15.2 9.5c-1.5 0-2.7 1.2-2.7 2.7s1.2 2.7 2.7 2.7c0 0 0 0 .1 0L15.2 9.5C15.3 9.5 15.2 9.5 15.2 9.5zM17.9 12.2c0-1.5-1.2-2.7-2.6-2.7v5.4C16.7 14.9 17.9 13.7 17.9 12.2z" class="selectable"/><path fill="#d99d39" d="M22.6 10.3c-.2-.7-.5-1.4-.8-2s-.7-1.1-1.2-1.5c-.4-.4-.9-.8-1.4-1.1-.6-.4-1.3-.7-2-.8-.6-.1-1.2-.2-1.8-.2v3.1c2.4 0 4.4 2 4.4 4.4s-1.9 4.4-4.4 4.4v3.1h.1c.6 0 1.2-.1 1.8-.2.7-.2 1.4-.5 2-.8s1.1-.7 1.5-1.2c.4-.4.8-.9 1.1-1.4.4-.6.7-1.3.8-2 .1-.6.2-1.2.2-1.8v-.1C22.8 11.5 22.8 10.9 22.6 10.3zM10.8 12.2c0 2.4 2 4.4 4.4 4.4 0 0 0 0 .1 0v-1.7c0 0 0 0-.1 0-1.5 0-2.7-1.2-2.7-2.7s1.2-2.7 2.7-2.7c0 0 0 0 .1 0V7.8c0 0 0 0-.1 0C12.8 7.8 10.8 9.7 10.8 12.2z" class="svgShape colord95239-56 selectable"/></g></g></svg></g></svg>