<svg xmlns="http://www.w3.org/2000/svg" xmlns:xlink="http://www.w3.org/1999/xlink" xmlns:svgjs="http://svgjs.com/svgjs" id="SvgjsSvg1001" width="288" height="288" version="1.1"><defs id="SvgjsDefs1002"/><g id="SvgjsG1008"><svg xmlns="http://www.w3.org/2000/svg" viewBox="0 0 1000 1000" width="288" height="288"><rect width="619.03" height="439.41" x="257.15" y="204.85" fill="#f59e0b" class="svgShape colorffa726-0 selectable"/><rect width="369.41" height="549.03" x="381.96" y="150.04" fill="#e8eaf0" transform="rotate(90 566.665 424.555)" class="svgShape colore0e0e0-1 selectable"/><rect width="716.67" height="73.24" x="208.33" y="131.61" fill="#0ea5e9" class="svgShape colorf57c00-2 selectable"/><path fill="#42b36d" d="M325.94,728.55V868.39H105.69V761.21a103,103,0,0,1,67.59-96.75h0l32.84,22.79a46,46,0,0,0,69.7-22.79h0a95.1,95.1,0,0,1,22.39,15C309.92,689.81,322.44,705.83,325.94,728.55Z" class="svgShape color7cb342-3 selectable"/><path fill="#009c3b" d="M560.63,629.35a34,34,0,0,1-3.44,14.91h0a33.4,33.4,0,0,1-5.72,8.29,300.56,300.56,0,0,1-34.54,31.56c-41.29,32.21-105.07,64.51-191,58.43v-14c-3.5-22.72-16-38.74-27.68-49.09a95.1,95.1,0,0,0-22.39-15c2.41.62,111.89,28.55,196-32a186.19,186.19,0,0,0,29.43-26.33,34.18,34.18,0,0,1,59.31,23.21Z" class="svgShape color558b2f-4 selectable"/><path fill="#ead6b2" d="M275.83,625.12v39.34a46,46,0,0,1-69.7,22.79l-32.84-22.79V606c16.82,18.29,39,29.4,63.36,29.4A80.78,80.78,0,0,0,275.83,625.12Z" class="svgShape colord88d79-5 selectable"/><path fill="#1a2744" d="M359.73 416.4s-6 28.48-42.33 42.46a116.94 116.94 0 0 1-32.83 7.06S186 474.29 153.76 468.6a20.53 20.53 0 0 0-19.12 6.56c-5.74 6.58-10.95 16.35-7.23 28.12a65.76 65.76 0 0 1 1.78 6.61c.58 2.82 2.6 7.55 9.34 12.27a31.49 31.49 0 0 1 13.14 23.89l1.8 28.83-.43 0c-4.1-.29-36.63-3.68-60.44-41.43C78.12 510.49 72.73 483 75.86 456.08c3.17-27.43 13.93-63.5 46.73-83.38 0 0 34.55-23 84-20.58 14.86.74 29.33 4.74 43 10.66a78.27 78.27 0 0 0 7.61 2.82c15.42 4.79 38.8 6.47 60.56-14.18a14.39 14.39 0 0 1 19.51-.47C350.24 362.52 368.77 385.35 359.73 416.4ZM684.06 362.23l-126 246a9.7 9.7 0 0 1-2.48 3.09 34.1 34.1 0 0 0-6.42-7.65 33.62 33.62 0 0 0-8.42-5.5L666.26 353.11a10 10 0 0 1 17.8 9.12Z" class="svgShape color5d4037-6 selectable"/><path fill="#dccbb1" d="M331.7 519.83c0 46.83-22.92 87.15-55.87 105.29a80.78 80.78 0 0 1-39.18 10.24c-24.34 0-46.54-11.11-63.36-29.4h0A115.16 115.16 0 0 1 153 574.86l.43 0-1.8-28.83a31.49 31.49 0 0 0-13.14-23.89c-6.74-4.72-8.76-9.45-9.34-12.27a65.76 65.76 0 0 0-1.78-6.61c-3.72-11.77 1.49-21.54 7.23-28.12a20.53 20.53 0 0 1 19.12-6.56c32.26 5.69 130.81-2.68 130.81-2.68a116.94 116.94 0 0 0 32.83-7.06A133.9 133.9 0 0 1 331.7 519.83ZM560.63 629.35a34 34 0 0 1-3.44 14.91h0a33.4 33.4 0 0 1-5.72 8.29 300.56 300.56 0 0 1-34.54 31.56l-45-51.64a186.19 186.19 0 0 0 29.43-26.33 34.18 34.18 0 0 1 59.31 23.21Z" class="svgShape colorffab91-7 selectable"/></svg></g></svg>